<svg width="512" height="512" viewBox="0 0 512 512" fill="none" xmlns="http://www.w3.org/2000/svg">
<g clip-path="url(#clip0)">
<rect width="512" height="512" fill="white"/>
<rect width="512" height="512" fill="white"/>
<circle cx="256" cy="256" r="221.091" fill="black" fill-opacity="0.09"/>
<circle cx="256" cy="256" r="220.841" stroke="#2869BF" stroke-opacity="0.04" stroke-width="0.5"/>
<circle cx="256" cy="256" r="139.636" fill="black" fill-opacity="0.09"/>
<circle cx="256" cy="256" r="139.386" stroke="#2869BF" stroke-opacity="0.04" stroke-width="0.5"/>
<path fill-rule="evenodd" clip-rule="evenodd" d="M256.25 0H255.75V255.75H0V256.25H255.75V512H256.25V256.25H512V255.75H256.25V0Z" fill="#6277A1" fill-opacity="0.1"/>
<path d="M299.093 -72.8178V-102.116C299.093 -118.303 312.204 -131.413 328.391 -131.413H386.987V-219.307H123.307V-131.413H181.902C198.089 -131.413 211.2 -118.303 211.2 -102.116V-72.8178C211.2 -56.6308 198.089 -43.52 181.902 -43.52H20.7645C4.57743 -43.52 -8.53333 -30.4093 -8.53333 -14.2222V542.435C-8.53333 558.623 4.57743 571.733 20.7645 571.733H489.529C505.716 571.733 518.827 558.623 518.827 542.435V-14.2222C518.827 -30.4093 505.716 -43.52 489.529 -43.52H328.391C312.204 -43.52 299.093 -56.6308 299.093 -72.8178Z" fill="#DD5D59"/>
<path d="M299.093 -72.8178V-102.116C299.093 -118.303 312.204 -131.413 328.391 -131.413H365.585C352.196 -163.407 335.496 -192.983 315.896 -219.307H123.307V-131.413H181.902C198.089 -131.413 211.2 -118.303 211.2 -102.116V-72.8178C211.2 -56.6308 198.089 -43.52 181.902 -43.52H20.7645C4.57743 -43.52 -8.53333 -30.4093 -8.53333 -14.2222V442.369C17.2487 450.294 44.232 454.542 72.0356 454.542C254.063 454.542 401.636 274.185 401.636 51.6978C401.636 18.8843 398.354 -12.9771 392.29 -43.52H328.391C312.204 -43.52 299.093 -56.6308 299.093 -72.8178Z" fill="#EE7370"/>
<path d="M401.067 235.886C401.067 152.734 334.211 85.3333 251.733 85.3333C169.255 85.3333 102.4 152.734 102.4 235.886C102.4 284.051 124.926 326.831 159.836 354.394V409.6H343.631V354.394C378.54 326.831 401.067 284.051 401.067 235.886Z" fill="#434E5C"/>
<path d="M220.83 352.406H197.953V409.6H220.83V352.406Z" fill="#596573"/>
<path d="M266.585 352.406H243.708V409.6H266.585V352.406Z" fill="#596573"/>
<path d="M312.34 352.406H289.463V409.6H312.34V352.406Z" fill="#596573"/>
<path d="M289.463 283.774H266.585V329.529H289.463V283.774Z" fill="#596573"/>
<path d="M247.467 281.6H221.867V332.8H247.467V281.6Z" fill="#596573"/>
<path d="M102.4 238.527C102.4 269.319 111.328 297.919 126.638 321.9C144.056 328.876 163.076 332.8 183.04 332.8C265.754 332.8 332.8 266.856 332.8 185.498C332.8 150.617 320.405 118.624 299.807 93.3819C284.831 88.244 268.841 85.3333 252.16 85.3333C169.446 85.3333 102.4 153.917 102.4 238.527Z" fill="#657B88"/>
<path d="M264.533 307.2C273.724 301.591 282.3 295.185 290.133 288.019V281.6H264.533V307.2Z" fill="#7B909B"/>
<path d="M247.467 317.105V281.6H221.867V324.267C230.673 322.432 239.262 320.108 247.467 317.105Z" fill="#7B909B"/>
<path d="M200.533 273.067C226.454 273.067 247.467 252.054 247.467 226.133C247.467 200.213 226.454 179.2 200.533 179.2C174.613 179.2 153.6 200.213 153.6 226.133C153.6 252.054 174.613 273.067 200.533 273.067Z" fill="#D8DCE4"/>
<path d="M311.467 273.067C337.387 273.067 358.4 252.054 358.4 226.133C358.4 200.213 337.387 179.2 311.467 179.2C285.546 179.2 264.533 200.213 264.533 226.133C264.533 252.054 285.546 273.067 311.467 273.067Z" fill="#D8DCE4"/>
<path d="M153.6 226.987C153.6 228.91 153.93 230.75 154.135 232.614C160.734 236.52 168.243 238.933 176.356 238.933C201.489 238.933 221.867 217.537 221.867 191.147C221.867 189.223 221.537 187.383 221.332 185.52C214.733 181.613 207.223 179.2 199.111 179.2C173.978 179.2 153.6 200.596 153.6 226.987Z" fill="white"/>
<path d="M264.533 226.987C264.533 228.91 264.863 230.75 265.068 232.614C271.667 236.52 279.177 238.933 287.289 238.933C312.422 238.933 332.8 217.537 332.8 191.147C332.8 189.223 332.47 187.383 332.265 185.52C325.666 181.613 318.157 179.2 310.044 179.2C284.911 179.2 264.533 200.596 264.533 226.987Z" fill="white"/>
</g>
<defs>
<clipPath id="clip0">
<rect width="512" height="512" fill="white"/>
</clipPath>
</defs>
</svg>
