<svg width="2157" height="2157" viewBox="0 0 2157 2157" fill="none" xmlns="http://www.w3.org/2000/svg">
<g clip-path="url(#clip0)">
<path d="M1078.5 2157C1674.14 2157 2157 1674.14 2157 1078.5C2157 482.861 1674.14 0 1078.5 0C482.861 0 0 482.861 0 1078.5C0 1674.14 482.861 2157 1078.5 2157Z" fill="#FDBF00"/>
<path d="M1337.9 819.062L1149.06 630.215L438.162 1341.11L551.999 1454.94L515.751 1491.19L652.581 1628.02L571.563 1709.04L509.773 1647.24L438.187 1718.83L852.571 2133.21C925.433 2148.76 1001 2157 1078.5 2157C1674.14 2157 2157 1674.14 2157 1078.5C2157 1001 2148.76 925.429 2133.22 852.559L1718.81 438.153L1337.9 819.062Z" fill="#FF9100"/>
<path d="M590.726 1416.19H515.682V1491.23H590.726V1416.19Z" fill="#C3EA21"/>
<path d="M1718.86 438.141V1116.02L1484.48 1191.06H616.99L438.141 1116.02V438.141H1718.86Z" fill="#E0F4FF"/>
<path d="M1718.86 438.141V1116.02L1484.48 1191.06H1078.5V438.141H1718.86Z" fill="#BBDCFF"/>
<path d="M438.141 1116.02V1341.15H1718.86V1116.02H438.141Z" fill="#BBDCFF"/>
<path d="M1718.86 1116.02H1078.5V1341.15H1718.86V1116.02Z" fill="#9ABADB"/>
<path d="M1078.5 590.728C892.395 590.728 740.811 742.312 740.811 928.416C740.811 1033.47 788.088 1130.28 871.385 1194.81C931.419 1241.34 1003.46 1266.1 1078.5 1266.1C1107.77 1266.1 1137.78 1262.36 1167.05 1254.85C1314.14 1214.33 1416.2 1080 1416.2 928.416C1416.19 742.307 1264.6 590.728 1078.5 590.728Z" fill="#575F64"/>
<path d="M1416.19 928.416C1416.19 1080 1314.13 1214.33 1167.05 1254.85C1137.78 1262.36 1107.77 1266.1 1078.5 1266.1V590.728C1264.6 590.728 1416.19 742.307 1416.19 928.416Z" fill="#32393F"/>
<path d="M1266.1 928.416V1460.46H890.891V928.416C890.891 824.859 974.938 740.812 1078.49 740.812C1182.05 740.812 1266.1 824.859 1266.1 928.416Z" fill="#9CDD05"/>
<path d="M1266.1 1460.46H1078.5V740.812C1182.06 740.812 1266.1 824.859 1266.1 928.416V1460.46Z" fill="#66BB00"/>
<path d="M1116.02 965.936H1040.98V1116.02H1116.02V965.936Z" fill="#C3EA21"/>
<path d="M1116.02 1191.06H1040.98V1266.11H1116.02V1191.06Z" fill="#C3EA21"/>
<path d="M1641.32 1491.23H1566.27V1566.28H1641.32V1491.23Z" fill="#9CDD05"/>
<path d="M1566.27 1681.34H590.727C590.727 1583.79 665.017 1500.99 760.321 1491.98C767.074 1480.73 775.331 1469.46 785.084 1460.46C837.61 1407.19 926.911 1404.18 984.695 1449.96C1010.21 1428.95 1042.48 1416.19 1078.5 1416.19C1114.52 1416.19 1146.79 1428.95 1172.3 1449.96C1230.09 1404.18 1319.39 1407.19 1371.91 1460.46C1381.67 1469.46 1389.93 1480.73 1396.68 1492.73C1494.23 1503.99 1566.27 1586.04 1566.27 1681.34Z" fill="#C3EA21"/>
<path d="M1116.02 965.936H1078.5V1116.02H1116.02V965.936Z" fill="#9CDD05"/>
<path d="M1116.02 1191.06H1078.5V1266.11H1116.02V1191.06Z" fill="#9CDD05"/>
<path d="M1566.27 1681.34H1078.5V1416.19C1114.52 1416.19 1146.79 1428.95 1172.3 1449.96C1230.09 1404.18 1319.39 1407.19 1371.92 1460.46C1381.67 1469.46 1389.93 1480.73 1396.68 1492.73C1494.23 1503.99 1566.27 1586.04 1566.27 1681.34Z" fill="#9CDD05"/>
<path d="M1718.86 1643.82H438.141V1718.86H1718.86V1643.82Z" fill="#9CDD05"/>
<path d="M1718.86 1643.82H1078.5V1718.86H1718.86V1643.82Z" fill="#66BB00"/>
</g>
<defs>
<clipPath id="clip0">
<rect width="2157" height="2157" fill="white"/>
</clipPath>
</defs>
</svg>
