<svg width="2157" height="2157" viewBox="0 0 2157 2157" fill="none" xmlns="http://www.w3.org/2000/svg">
<path d="M1078.5 2157C1674.14 2157 2157 1674.14 2157 1078.5C2157 482.861 1674.14 0 1078.5 0C482.861 0 0 482.861 0 1078.5C0 1674.14 482.861 2157 1078.5 2157Z" fill="#FDBF00"/>
<path d="M2156.75 1058.43L1549.15 450.83L900.353 1099.63L933.399 1132.67L607.574 1458.5L887.929 1738.85L752.131 1874.65L1033.48 2156C1048.42 2156.61 1063.41 2157 1078.5 2157C1674.14 2157 2157 1674.14 2157 1078.5C2157 1071.79 2156.87 1065.11 2156.75 1058.43Z" fill="#FF9100"/>
<path d="M1685.01 798.574C1685.01 914.277 1652.35 1038.38 1591.7 1149.42V1358.43C1591.7 1435.87 1529.18 1498.39 1451.74 1498.39C1425.61 1498.39 1405.08 1518.92 1405.08 1545.04V1591.7L1350.97 1656.08L1405.08 1685V1874.74H751.918V1685.01L806.036 1654.22L751.918 1591.7V1545.05C751.918 1518.92 731.388 1498.39 705.264 1498.39C627.819 1498.39 565.299 1435.88 565.299 1358.43V1149.42C504.65 1038.38 471.992 914.282 471.992 798.579C471.992 486.922 709.932 282.264 1078.5 282.264C1447.07 282.264 1685.01 486.922 1685.01 798.574Z" fill="#E0F4FF"/>
<path d="M1685.01 798.574C1685.01 914.277 1652.35 1038.38 1591.7 1149.42V1358.43C1591.7 1435.87 1529.18 1498.39 1451.74 1498.39C1425.61 1498.39 1405.08 1518.92 1405.08 1545.04V1591.7L1350.96 1656.08L1405.08 1685V1874.74H1078.5V282.264C1447.07 282.264 1685.01 486.922 1685.01 798.574Z" fill="#BBDCFF"/>
<path d="M845.228 751.917C742.589 751.917 658.609 835.893 658.609 938.535C658.609 1041.17 742.589 1125.15 845.228 1125.15C947.866 1125.15 1031.85 1041.17 1031.85 938.535C1031.85 835.893 947.866 751.917 845.228 751.917Z" fill="#575F64"/>
<path d="M1311.77 751.917C1209.13 751.917 1125.15 835.893 1125.15 938.535C1125.15 1041.17 1209.13 1125.15 1311.77 1125.15C1414.41 1125.15 1498.39 1041.17 1498.39 938.535C1498.39 835.893 1414.41 751.917 1311.77 751.917Z" fill="#32393F"/>
<path d="M1082.23 1125.15H1078.5C982.393 1125.15 938.537 1304.31 938.537 1358.43C938.537 1386.42 947.869 1406.95 965.597 1418.14C993.591 1436.81 1021.58 1424.67 1042.11 1416.28C1053.93 1411.21 1066.52 1408.44 1078.5 1408.66C1079.74 1408.66 1080.99 1408.72 1082.23 1408.81C1093.43 1408.81 1103.7 1411.61 1114.89 1416.28C1143.82 1427.47 1164.35 1435.87 1191.41 1418.14C1209.14 1406.95 1218.47 1386.42 1218.47 1358.43C1218.47 1305.24 1175.54 1129.82 1082.23 1125.15Z" fill="#575F64"/>
<path d="M1405.08 1591.7H751.918V1685H1405.08V1591.7Z" fill="#BBDCFF"/>
<path d="M1003.85 1498.39H910.547V1778.32H1003.85V1498.39Z" fill="#BBDCFF"/>
<path d="M1237.12 1498.39H1143.82V1778.32H1237.12V1498.39Z" fill="#9ABADB"/>
<path d="M1218.46 1358.43C1218.46 1386.42 1209.13 1406.95 1191.41 1418.14C1164.35 1435.87 1143.82 1427.47 1114.89 1416.28C1103.69 1411.61 1093.43 1408.81 1082.23 1408.81C1080.99 1408.72 1079.74 1408.66 1078.5 1408.66V1125.15H1082.23C1175.54 1129.82 1218.46 1305.24 1218.46 1358.43Z" fill="#32393F"/>
<path d="M1405.08 1591.7H1078.5V1685H1405.08V1591.7Z" fill="#9ABAFF"/>
</svg>
