<svg width="2157" height="2157" viewBox="0 0 2157 2157" fill="none" xmlns="http://www.w3.org/2000/svg">
<path d="M1078.5 2157C1674.14 2157 2157 1674.14 2157 1078.5C2157 482.861 1674.14 0 1078.5 0C482.861 0 0 482.861 0 1078.5C0 1674.14 482.861 2157 1078.5 2157Z" fill="#FDBF00"/>
<path d="M1461.68 446.305L1098.25 809.738L1364.76 1076.25L888.026 1552.98L559.947 1224.9L448.533 1336.31L776.612 1664.39L653.208 1787.79L1020.88 2155.46C1039.96 2156.46 1059.17 2157 1078.5 2157C1653.54 2157 2123.42 1706.94 2155.23 1139.85L1461.68 446.305Z" fill="#FF9100"/>
<path d="M1439.8 1389.99L1077.22 1388.21L711.987 1386.44C633.783 1256.69 576.909 1083.4 591.132 934.107L624.894 542.212C693.324 397.36 858.613 311.754 1077.22 311.754C1295.83 311.754 1461.12 397.36 1529.55 542.212L1563.32 934.107C1577.54 1082.51 1518.88 1261.13 1439.8 1389.99Z" fill="#9CDD05"/>
<path d="M1439.8 1389.99L1077.22 1388.21V311.754C1295.84 311.754 1461.12 397.36 1529.55 542.212L1563.32 934.107C1577.54 1082.51 1518.88 1261.13 1439.8 1389.99Z" fill="#66BB00"/>
<path d="M766.195 981.208C888.892 981.208 988.358 881.742 988.358 759.045C988.358 636.348 888.892 536.883 766.195 536.883C643.498 536.883 544.033 636.348 544.033 759.045C544.033 881.742 643.498 981.208 766.195 981.208Z" fill="#E0F4FF"/>
<path d="M1388.25 981.208C1510.95 981.208 1610.42 881.742 1610.42 759.045C1610.42 636.348 1510.95 536.883 1388.25 536.883C1265.56 536.883 1166.09 636.348 1166.09 759.045C1166.09 881.742 1265.56 981.208 1388.25 981.208Z" fill="#BBDCFF"/>
<path d="M784.461 1282.17L596.141 1424.58L756.909 1637.24L892.678 1534.62L784.461 1282.17Z" fill="#575F64"/>
<path d="M1370.2 1286.99L1259.51 1537.48L1391.55 1637.28L1552.23 1424.54L1370.2 1286.99Z" fill="#32393F"/>
<path d="M954.684 633.372L891.855 570.543L577.706 884.692L640.534 947.521L954.684 633.372Z" fill="#BBDCFF"/>
<path d="M1576.74 633.368L1513.91 570.539L1199.76 884.689L1262.59 947.517L1576.74 633.368Z" fill="#9ABADB"/>
<path d="M766.194 1025.64C619.185 1025.64 499.598 906.054 499.598 759.045C499.598 612.036 619.185 492.449 766.194 492.449C913.203 492.449 1032.79 612.036 1032.79 759.045C1032.79 906.054 913.203 1025.64 766.194 1025.64ZM766.194 581.312C668.173 581.312 588.461 661.024 588.461 759.045C588.461 857.066 668.173 936.779 766.194 936.779C864.215 936.779 943.928 857.066 943.928 759.045C943.928 661.024 864.215 581.312 766.194 581.312Z" fill="#575F64"/>
<path d="M1388.25 1025.64C1241.24 1025.64 1121.66 906.054 1121.66 759.045C1121.66 612.036 1241.24 492.449 1388.25 492.449C1535.26 492.449 1654.85 612.036 1654.85 759.045C1654.85 906.054 1535.26 1025.64 1388.25 1025.64ZM1388.25 581.312C1290.23 581.312 1210.52 661.024 1210.52 759.045C1210.52 857.066 1290.23 936.779 1388.25 936.779C1486.27 936.779 1565.99 857.066 1565.99 759.045C1565.99 661.024 1486.27 581.312 1388.25 581.312Z" fill="#32393F"/>
<path d="M1343.82 1336.67C1343.82 1484.18 1224.74 1603.27 1077.22 1603.27C929.71 1603.27 810.628 1484.18 810.628 1336.67C810.628 1189.15 929.71 1070.07 1077.22 1070.07C1224.74 1070.07 1343.82 1189.15 1343.82 1336.67Z" fill="#BBDCFF"/>
<path d="M1077.22 1025.64C905.713 1025.64 766.195 1165.16 766.195 1336.67C766.195 1508.18 905.713 1647.7 1077.22 1647.7C1248.74 1647.7 1388.25 1508.18 1388.25 1336.67C1388.25 1165.16 1248.74 1025.64 1077.22 1025.64ZM855.062 1336.67C855.062 1229.14 931.483 1139.38 1032.79 1118.95V1211.37C981.25 1230.03 943.928 1278.9 943.928 1336.67C943.928 1344.67 944.817 1352.67 946.595 1360.66L867.502 1405.98C860.391 1384.65 855.062 1361.55 855.062 1336.67ZM1077.22 1558.84C1011.47 1558.84 952.809 1529.51 911.936 1483.3L991.028 1437.98C1014.13 1457.53 1044.35 1469.97 1077.22 1469.97C1110.11 1469.97 1140.32 1457.53 1163.42 1437.98L1242.51 1483.3C1201.64 1529.51 1142.98 1558.84 1077.22 1558.84ZM1286.95 1405.98L1207.85 1360.66C1209.63 1352.67 1210.52 1344.67 1210.52 1336.67C1210.52 1278.91 1173.2 1230.03 1121.65 1211.37V1118.95C1222.96 1139.39 1299.39 1229.14 1299.39 1336.67C1299.39 1361.55 1294.06 1384.65 1286.95 1405.98Z" fill="#575F64"/>
<path d="M1343.82 1336.67C1343.82 1484.18 1224.74 1603.27 1077.22 1603.27V1070.07C1224.74 1070.07 1343.82 1189.15 1343.82 1336.67Z" fill="#9ABADB"/>
<path d="M1077.22 1025.64V1469.97C1110.11 1469.97 1140.32 1457.53 1163.42 1437.98L1242.51 1483.3C1201.64 1529.51 1142.98 1558.84 1077.22 1558.84V1647.7C1248.74 1647.7 1388.25 1508.19 1388.25 1336.67C1388.25 1165.16 1248.74 1025.64 1077.22 1025.64ZM1286.95 1405.98L1207.85 1360.66C1209.63 1352.67 1210.52 1344.67 1210.52 1336.67C1210.52 1278.91 1173.2 1230.03 1121.65 1211.37V1118.95C1222.96 1139.39 1299.39 1229.14 1299.39 1336.67C1299.39 1361.55 1294.06 1384.65 1286.95 1405.98Z" fill="#32393F"/>
<path d="M641.923 1775.38L427.571 1491.82C383.171 1433.16 394.626 1349.69 453.564 1305.15L559.83 1224.75L934.95 1720.97L828.596 1801.38C769.801 1845.85 686.369 1834.2 641.923 1775.38Z" fill="#7C8388"/>
<path d="M1319.78 1801.52L1213.47 1721.12L1588.55 1224.94L1694.86 1305.3C1753.67 1349.75 1765.29 1433.2 1720.84 1492.02L1506.49 1775.53C1462.32 1834 1378.48 1845.89 1319.78 1801.52Z" fill="#575F64"/>
</svg>
