<svg width="707" height="164" viewBox="0 0 707 164" fill="none" xmlns="http://www.w3.org/2000/svg">
<mask id="mask0" mask-type="alpha" maskUnits="userSpaceOnUse" x="0" y="30" width="98" height="117">
<rect y="30" width="98" height="117" fill="white"/>
</mask>
<g mask="url(#mask0)">
<path d="M83.0374 68.8842L92.8803 81.079L90.675 96.5943C83.43 96.6466 75.9883 98.1793 69.1994 100.828L67.9336 104.936L63.545 103.359L57.9735 106.19L53.8674 95.5254L53.8404 95.6625L53.1016 92.0425L50.0371 77.3961L56.2726 76.9737L58.3095 72.1345L62.4251 76.2503C69.6125 75.0472 76.7885 72.5507 83.0374 68.8842Z" fill="#9CDD05"/>
<path d="M83.0374 68.8847L92.8803 81.0794L53.1016 92.043L50.0371 77.3965L56.2726 76.9742L58.3095 72.1349L62.4251 76.2507C69.6125 75.0477 76.7885 72.5511 83.0374 68.8847Z" fill="#66BB00"/>
<path d="M17.0241 61.8002C15.4659 63.202 14.0946 64.8117 13.1077 66.6391C10.9258 70.4812 10.4116 74.9656 11.179 79.1615C4.9066 86.2702 2.36497 96.1743 4.88866 105.331C7.41236 114.488 14.6691 121.691 23.698 124.583C25.1883 128.579 27.9273 132.167 31.7697 134.349C34.6128 135.963 37.8319 136.826 41.0763 136.839C44.2371 140.311 49.0472 141.772 53.6858 140.494C60.3119 138.667 64.2396 131.751 62.4133 125.125C61.8986 123.257 60.962 121.506 59.6703 120.112C60.0391 116.51 59.4042 112.796 57.7349 109.562C60.5465 103.537 61.0821 96.7781 59.3055 90.3323C57.529 83.8865 53.6066 78.3561 48.105 74.6223C47.7466 69.7954 45.5751 65.2082 42.0427 62.0339C42.0885 60.7898 41.8772 59.5515 41.5451 58.3468C39.7189 51.7206 32.863 47.7763 26.1763 49.6192C20.6344 51.1477 16.9651 56.1777 17.0241 61.8002Z" fill="#C3EA21"/>
<path d="M26.1765 49.6209C32.8632 47.778 39.719 51.722 41.5453 58.3485C41.8774 59.5532 42.089 60.7914 42.0428 62.0356C45.5753 65.2099 47.7467 69.797 48.1052 74.624C53.6065 78.3579 57.5292 83.8882 59.3057 90.334L4.88867 105.332C2.36497 96.1754 4.90661 86.2713 11.1793 79.1624C10.4117 74.9666 10.9259 70.4823 13.108 66.6401C14.095 64.8126 15.4662 63.2029 17.0244 61.8012C16.965 56.1784 20.6343 51.1484 26.1765 49.6209Z" fill="#9CDD05"/>
<path d="M64.4999 85.6616L66.1602 91.6855L84.433 86.6493L82.7727 80.6254L64.4999 85.6616Z" fill="#66BB00"/>
<path d="M64.499 85.6609L65.3291 88.6729L83.6019 83.6366L82.7718 80.6246L64.499 85.6609Z" fill="#539900"/>
<path d="M92.9907 38.9178L93.8943 38.6687L115.478 116.981L114.575 117.23C106.924 119.339 99.0427 114.965 96.6495 107.457C92.3937 106.361 88.9487 103.033 87.7533 98.696C86.9731 95.865 87.2831 92.992 88.4487 90.4022C86.1976 88.8186 84.3995 86.5274 83.6026 83.6358C82.8056 80.7443 83.176 77.8554 84.2979 75.3421C81.9701 73.7152 80.2321 71.407 79.4518 68.5757C78.2564 64.2386 79.5101 59.6149 82.6035 56.4942C80.8126 48.8209 85.3402 41.0264 92.9907 38.9178Z" fill="#C3EA21"/>
<path d="M92.99 38.9176L93.8937 38.6685L104.686 77.8247L83.6016 83.6357C82.8046 80.7442 83.175 77.8553 84.2969 75.342C81.9691 73.7151 80.2311 71.4069 79.4508 68.5756C78.2554 64.2385 79.5091 59.6148 82.6025 56.4941C80.8119 48.8207 85.3395 41.0262 92.99 38.9176Z" fill="#9CDD05"/>
<path d="M59.2105 54.7096C64.7524 53.1822 70.009 63.7889 73.4819 73.3319C75.3421 78.1993 76.6641 82.7607 77.378 85.3511C78.092 87.9415 79.2935 92.5361 80.1895 97.6692C82.096 107.644 83.0156 119.446 77.4737 120.973C75.7869 121.438 70.847 122.8 63.5444 103.358L64.2777 102.961C65.9248 102.119 67.5456 101.413 69.2425 100.751C71.8041 107.693 74.0341 111.551 75.3982 113.443C75.5775 110.801 75.3834 105.864 74.099 99.0876C73.5139 95.5542 72.5992 91.5288 71.3539 87.0107C70.1087 82.4926 68.832 78.567 67.5243 75.2328C65.1558 68.7554 62.7932 64.416 61.2856 62.2387C61.0835 64.5629 61.1448 69.0182 62.5014 76.2925C60.705 76.5932 58.9515 76.8177 57.1052 76.9374L56.2721 76.9723C52.5837 56.536 57.5234 55.1746 59.2105 54.7096Z" fill="#C3EA21"/>
<path d="M59.2113 54.7097C64.7531 53.1823 70.0098 63.789 73.4826 73.332C75.3428 78.1993 76.6648 82.7607 77.3788 85.3512L71.3548 87.0114C70.1096 82.4933 68.8329 78.5677 67.5252 75.2335C65.1568 68.7561 62.7941 64.4167 61.2866 62.2394C61.0845 64.5636 61.1458 69.0189 62.5024 76.2932C60.7059 76.5939 58.9524 76.8184 57.1061 76.9381L56.273 76.973C52.5845 56.5361 57.5241 55.1747 59.2113 54.7097Z" fill="#9CDD05"/>
</g>
<path d="M102.659 78.0967H109.958C111.996 78.0967 113.476 77.5378 114.396 76.4199C115.383 75.3021 116.007 73.9541 116.271 72.376C116.599 70.7979 116.698 69.1211 116.566 67.3457C116.501 65.5703 116.435 64.0251 116.369 62.71H120.019V104.925H116.369V88.1572C116.369 86.3161 115.777 84.7708 114.594 83.5215C113.41 82.2064 111.865 81.5488 109.958 81.5488H102.659L102.265 138.065C102.265 140.367 102.528 142.044 103.054 143.096C103.58 144.082 104.303 144.74 105.224 145.068C106.21 145.331 107.394 145.43 108.774 145.364C110.155 145.233 111.733 145.167 113.509 145.167V148.816H81.2559V145.167H85.2998C86.2861 145.167 87.2067 144.97 88.0615 144.575C88.9163 144.115 89.6396 143.556 90.2314 142.898C90.889 142.175 91.3822 141.386 91.7109 140.531C92.1055 139.611 92.3027 138.657 92.3027 137.671L93.1904 21.9746C93.1904 20.9883 92.8945 20.0677 92.3027 19.2129C91.7109 18.2923 90.9548 17.5033 90.0342 16.8457C89.1794 16.1882 88.2259 15.6621 87.1738 15.2676C86.1217 14.873 85.1354 14.6758 84.2148 14.6758C83.4915 14.6758 82.834 14.7087 82.2422 14.7744C81.6504 14.8402 80.9928 14.9388 80.2695 15.0703V11.4209L131.953 7.77148L132.15 44.3643H128.698L128.501 22.7637C128.501 21.3828 128.337 20.0677 128.008 18.8184C127.745 17.5033 127.252 16.3854 126.528 15.4648C125.871 14.4785 124.983 13.6895 123.865 13.0977C122.747 12.5059 121.399 12.21 119.821 12.21C117.06 12.21 114.298 12.3743 111.536 12.7031C108.774 12.9661 106.013 13.2292 103.251 13.4922L102.659 78.0967Z" fill="#C3EA21"/>
<path d="M166.771 125.539C165.981 126.92 164.929 128.202 163.614 129.386C162.299 130.569 160.885 131.621 159.373 132.542C157.861 133.463 156.283 134.186 154.639 134.712C152.995 135.238 151.45 135.501 150.003 135.501C147.767 135.501 145.827 135.041 144.184 134.12C142.54 133.134 141.159 131.884 140.041 130.372C138.923 128.794 138.068 127.051 137.477 125.145C136.951 123.172 136.688 121.166 136.688 119.128C136.688 115.314 137.509 111.961 139.153 109.067C140.797 106.108 142.836 103.412 145.269 100.979C147.701 98.5465 150.365 96.2122 153.258 93.9766C156.151 91.7409 158.814 89.3408 161.247 86.7764C163.68 84.2119 165.718 81.3844 167.362 78.2939C169.006 75.2035 169.828 71.554 169.828 67.3457C169.894 65.3073 169.697 63.1702 169.236 60.9346C168.776 58.6989 167.954 56.6605 166.771 54.8193C165.653 52.9124 164.206 51.3672 162.431 50.1836C160.655 49 158.551 48.4082 156.118 48.4082C153.488 48.4082 151.318 49.0329 149.608 50.2822C147.965 51.5316 146.649 53.1426 145.663 55.1152C144.677 57.0221 143.986 59.1921 143.592 61.625C143.263 63.9922 143.099 66.3265 143.099 68.6279C143.099 69.5485 143.164 70.6992 143.296 72.0801C143.427 73.4609 143.658 74.8089 143.986 76.124C144.315 77.3734 144.743 78.4583 145.269 79.3789C145.86 80.2995 146.584 80.7598 147.438 80.7598C148.359 80.7598 149.082 80.4639 149.608 79.8721C150.2 79.2803 150.628 78.5898 150.891 77.8008C151.219 76.946 151.384 76.0583 151.384 75.1377C151.45 74.2171 151.45 73.3952 151.384 72.6719L154.836 72.4746C154.902 73.987 154.803 75.4665 154.54 76.9131C154.343 78.2939 153.948 79.5433 153.356 80.6611C152.765 81.779 151.976 82.6667 150.989 83.3242C150.003 83.9818 148.819 84.3105 147.438 84.3105C145.532 84.3105 143.921 83.7845 142.605 82.7324C141.356 81.6146 140.37 80.2666 139.646 78.6885C138.923 77.0446 138.397 75.3021 138.068 73.4609C137.805 71.6198 137.674 69.943 137.674 68.4307C137.674 65.4717 138.068 62.5785 138.857 59.751C139.646 56.9235 140.83 54.3919 142.408 52.1562C143.986 49.8548 145.992 48.0137 148.425 46.6328C150.858 45.252 153.751 44.5615 157.104 44.5615C161.313 44.5615 164.798 45.5807 167.56 47.6191C170.321 49.6576 172.524 52.2549 174.168 55.4111C175.812 58.5016 176.963 61.888 177.62 65.5703C178.343 69.1868 178.705 72.6061 178.705 75.8281C178.705 84.179 178.409 92.4971 177.817 100.782C177.226 109.002 176.93 117.32 176.93 125.736C176.93 127.577 177.16 128.991 177.62 129.978C178.08 130.898 178.738 131.556 179.593 131.95C180.448 132.345 181.467 132.575 182.65 132.641C183.9 132.706 185.281 132.772 186.793 132.838V136.29C183.308 136.159 179.856 136.06 176.437 135.994C173.083 135.863 169.729 135.698 166.376 135.501L166.771 125.539ZM155.428 129.188C156.348 129.188 157.335 128.958 158.387 128.498C159.505 127.972 160.59 127.282 161.642 126.427C162.694 125.506 163.68 124.487 164.601 123.369C165.587 122.186 166.442 120.903 167.165 119.522L169.039 83.916C167.132 86.5462 164.896 89.1764 162.332 91.8066C159.833 94.3711 157.433 97.0013 155.132 99.6973C152.896 102.393 150.956 105.188 149.312 108.081C147.734 110.974 146.945 114.032 146.945 117.254C146.945 118.438 147.11 119.753 147.438 121.199C147.767 122.58 148.26 123.862 148.918 125.046C149.641 126.229 150.529 127.216 151.581 128.005C152.699 128.794 153.981 129.188 155.428 129.188Z" fill="#C3EA21"/>
<path d="M213.325 145.759H219.243L219.046 149.408L186.892 149.014V145.562H192.514C193.303 145.562 194.059 145.331 194.782 144.871C195.506 144.411 196.097 143.852 196.558 143.194C197.084 142.537 197.478 141.813 197.741 141.024C198.07 140.235 198.234 139.512 198.234 138.854L198.826 58.0742C198.826 56.2331 198.432 54.8851 197.643 54.0303C196.919 53.1097 195.966 52.485 194.782 52.1562C193.664 51.8275 192.382 51.696 190.936 51.7617C189.555 51.8275 188.207 51.8604 186.892 51.8604V48.4082C190.64 48.4082 194.322 48.3753 197.938 48.3096C201.621 48.2438 205.336 48.2109 209.084 48.2109C213.818 48.2109 218.027 48.737 221.709 49.7891C225.457 50.7754 228.613 52.3864 231.178 54.6221C233.742 56.8577 235.682 59.751 236.997 63.3018C238.312 66.7868 238.97 71.028 238.97 76.0254C238.97 78.6556 238.641 81.4173 237.983 84.3105C237.392 87.138 236.405 89.8011 235.024 92.2998C233.709 94.7327 231.967 96.804 229.797 98.5137C227.693 100.223 225.095 101.21 222.005 101.473C226.279 103.314 229.665 106.043 232.164 109.659C234.663 113.276 236.011 117.353 236.208 121.89C236.34 126.229 236.504 130.569 236.701 134.909C236.964 139.183 237.26 143.457 237.589 147.731C237.72 149.638 237.983 151.381 238.378 152.959C238.838 154.537 239.463 155.918 240.252 157.102C241.107 158.285 242.192 159.206 243.507 159.863C244.888 160.521 246.564 160.882 248.537 160.948V163.907C245.775 163.907 243.211 163.447 240.844 162.526C238.477 161.606 236.372 160.389 234.531 158.877C232.69 157.365 231.178 155.622 229.994 153.649C228.811 151.677 228.054 149.638 227.726 147.534C227.002 143.392 226.641 139.183 226.641 134.909C226.706 130.635 226.575 126.361 226.246 122.087C226.115 120.377 225.819 118.405 225.358 116.169C224.898 113.868 224.175 111.698 223.188 109.659C222.202 107.555 220.953 105.78 219.44 104.333C217.928 102.886 216.12 102.163 214.016 102.163H208.295L208.098 139.052C208.098 139.775 208.229 140.531 208.492 141.32C208.755 142.109 209.117 142.833 209.577 143.49C210.037 144.148 210.596 144.707 211.254 145.167C211.911 145.562 212.602 145.759 213.325 145.759ZM214.607 99.3027C217.632 99.3027 220.032 98.4479 221.808 96.7383C223.649 95.0286 225.03 92.9574 225.95 90.5244C226.937 88.0257 227.561 85.3626 227.824 82.5352C228.153 79.7077 228.317 77.1432 228.317 74.8418C228.317 71.8828 228.054 69.0225 227.528 66.2607C227.002 63.4333 226.082 60.9674 224.767 58.8633C223.451 56.7591 221.643 55.0824 219.342 53.833C217.106 52.5179 214.246 51.8604 210.761 51.8604C210.366 51.8604 210.005 51.8604 209.676 51.8604C209.347 51.8604 209.018 51.9261 208.689 52.0576L208.295 99.3027H214.607Z" fill="#C3EA21"/>
<path d="M265.107 47.4219H286.313V50.7754H274.379C272.998 50.7754 271.716 51.1699 270.532 51.959C269.414 52.6823 268.461 53.6357 267.672 54.8193C266.883 56.0029 266.258 57.2852 265.798 58.666C265.403 60.0469 265.173 61.3291 265.107 62.5127L264.713 135.501C264.713 137.145 264.746 139.085 264.812 141.32C264.943 143.556 265.305 145.693 265.896 147.731C266.488 149.77 267.409 151.479 268.658 152.86C269.908 154.307 271.683 155.03 273.984 155.03C275.562 155.03 276.845 154.636 277.831 153.847C278.817 153.058 279.574 152.071 280.1 150.888C280.691 149.704 281.086 148.422 281.283 147.041C281.48 145.66 281.546 144.345 281.48 143.096L285.13 143.983C285.13 147.14 284.702 149.737 283.848 151.775C283.059 153.88 282.007 155.523 280.691 156.707C279.442 157.891 277.995 158.713 276.352 159.173C274.708 159.633 273.064 159.863 271.42 159.863C268.198 159.863 265.502 159.041 263.332 157.397C261.228 155.754 259.551 153.682 258.302 151.184C257.052 148.751 256.165 146.055 255.639 143.096C255.113 140.137 254.85 137.375 254.85 134.811L255.244 50.7754H242.718V47.4219H255.244L255.441 23.1582L265.305 14.6758L265.107 47.4219Z" fill="#C3EA21"/>
<path d="M374.59 18.3252C374.59 15.1689 374.59 12.6374 374.59 10.7305C374.656 8.82357 374.36 7.37695 373.702 6.39062C373.11 5.33854 371.96 4.68099 370.25 4.41797C368.606 4.15495 366.107 4.05632 362.754 4.12207V1.16309L395.007 0.768555V3.9248H388.793C388.135 3.9248 387.511 4.12207 386.919 4.5166C386.393 4.91113 385.933 5.4043 385.538 5.99609C385.144 6.58789 384.848 7.24544 384.65 7.96875C384.453 8.6263 384.354 9.25098 384.354 9.84277V143.293C384.354 144.016 384.486 144.772 384.749 145.562C385.012 146.285 385.374 146.975 385.834 147.633C386.36 148.29 386.952 148.816 387.609 149.211C388.267 149.605 388.99 149.803 389.779 149.803L395.401 149.605L395.599 153.058L363.543 154.044L363.346 150.592L368.968 150.395C369.757 150.329 370.48 150.066 371.138 149.605C371.861 149.145 372.453 148.586 372.913 147.929C373.373 147.205 373.735 146.449 373.998 145.66C374.261 144.805 374.393 144.016 374.393 143.293L374.59 40.9121L356.441 104.925L344.704 71.1924L346.184 136.685C346.184 137.408 346.315 138.164 346.578 138.953C346.841 139.742 347.203 140.465 347.663 141.123C348.189 141.715 348.781 142.241 349.438 142.701C350.096 143.096 350.819 143.293 351.608 143.293L357.23 143.096L357.428 146.548L331.191 147.337L330.994 143.983L336.616 143.786C337.405 143.786 338.129 143.556 338.786 143.096C339.509 142.635 340.101 142.076 340.562 141.419C341.022 140.696 341.383 139.939 341.646 139.15C341.91 138.361 342.008 137.605 341.942 136.882L339.871 35.4873C339.871 33.9749 339.378 32.627 338.392 31.4434C337.471 30.194 336.156 29.5693 334.446 29.5693C333.328 29.5693 332.243 29.6022 331.191 29.668C330.139 29.7337 329.054 29.7666 327.937 29.7666L327.739 26.8076L354.074 25.3281L354.271 28.3857C352.956 28.4515 351.674 28.5173 350.425 28.583C349.241 28.583 348.156 28.7803 347.17 29.1748C346.184 29.5036 345.395 30.1283 344.803 31.0488C344.211 31.9036 343.915 33.1859 343.915 34.8955L344.112 44.7588C344.704 46.5999 345.395 48.8027 346.184 51.3672C347.038 53.9316 348.025 56.9235 349.143 60.3428C350.326 63.762 351.674 67.6416 353.187 71.9814C354.699 76.3213 356.409 81.1872 358.315 86.5791L374.59 27.7939V18.3252Z" fill="#C3EA21"/>
<path d="M430.317 125.539C429.528 126.92 428.476 128.202 427.161 129.386C425.846 130.569 424.432 131.621 422.92 132.542C421.408 133.463 419.829 134.186 418.186 134.712C416.542 135.238 414.996 135.501 413.55 135.501C411.314 135.501 409.374 135.041 407.73 134.12C406.087 133.134 404.706 131.884 403.588 130.372C402.47 128.794 401.615 127.051 401.023 125.145C400.497 123.172 400.234 121.166 400.234 119.128C400.234 115.314 401.056 111.961 402.7 109.067C404.344 106.108 406.382 103.412 408.815 100.979C411.248 98.5465 413.911 96.2122 416.805 93.9766C419.698 91.7409 422.361 89.3408 424.794 86.7764C427.227 84.2119 429.265 81.3844 430.909 78.2939C432.553 75.2035 433.375 71.554 433.375 67.3457C433.441 65.3073 433.243 63.1702 432.783 60.9346C432.323 58.6989 431.501 56.6605 430.317 54.8193C429.2 52.9124 427.753 51.3672 425.978 50.1836C424.202 49 422.098 48.4082 419.665 48.4082C417.035 48.4082 414.865 49.0329 413.155 50.2822C411.511 51.5316 410.196 53.1426 409.21 55.1152C408.224 57.0221 407.533 59.1921 407.139 61.625C406.81 63.9922 406.646 66.3265 406.646 68.6279C406.646 69.5485 406.711 70.6992 406.843 72.0801C406.974 73.4609 407.204 74.8089 407.533 76.124C407.862 77.3734 408.289 78.4583 408.815 79.3789C409.407 80.2995 410.131 80.7598 410.985 80.7598C411.906 80.7598 412.629 80.4639 413.155 79.8721C413.747 79.2803 414.174 78.5898 414.438 77.8008C414.766 76.946 414.931 76.0583 414.931 75.1377C414.996 74.2171 414.996 73.3952 414.931 72.6719L418.383 72.4746C418.449 73.987 418.35 75.4665 418.087 76.9131C417.89 78.2939 417.495 79.5433 416.903 80.6611C416.312 81.779 415.522 82.6667 414.536 83.3242C413.55 83.9818 412.366 84.3105 410.985 84.3105C409.078 84.3105 407.467 83.7845 406.152 82.7324C404.903 81.6146 403.917 80.2666 403.193 78.6885C402.47 77.0446 401.944 75.3021 401.615 73.4609C401.352 71.6198 401.221 69.943 401.221 68.4307C401.221 65.4717 401.615 62.5785 402.404 59.751C403.193 56.9235 404.377 54.3919 405.955 52.1562C407.533 49.8548 409.539 48.0137 411.972 46.6328C414.405 45.252 417.298 44.5615 420.651 44.5615C424.86 44.5615 428.345 45.5807 431.106 47.6191C433.868 49.6576 436.071 52.2549 437.715 55.4111C439.359 58.5016 440.509 61.888 441.167 65.5703C441.89 69.1868 442.252 72.6061 442.252 75.8281C442.252 84.179 441.956 92.4971 441.364 100.782C440.772 109.002 440.477 117.32 440.477 125.736C440.477 127.577 440.707 128.991 441.167 129.978C441.627 130.898 442.285 131.556 443.14 131.95C443.994 132.345 445.014 132.575 446.197 132.641C447.447 132.706 448.827 132.772 450.34 132.838V136.29C446.855 136.159 443.403 136.06 439.983 135.994C436.63 135.863 433.276 135.698 429.923 135.501L430.317 125.539ZM418.975 129.188C419.895 129.188 420.882 128.958 421.934 128.498C423.051 127.972 424.136 127.282 425.188 126.427C426.241 125.506 427.227 124.487 428.147 123.369C429.134 122.186 429.989 120.903 430.712 119.522L432.586 83.916C430.679 86.5462 428.443 89.1764 425.879 91.8066C423.38 94.3711 420.98 97.0013 418.679 99.6973C416.443 102.393 414.503 105.188 412.859 108.081C411.281 110.974 410.492 114.032 410.492 117.254C410.492 118.438 410.657 119.753 410.985 121.199C411.314 122.58 411.807 123.862 412.465 125.046C413.188 126.229 414.076 127.216 415.128 128.005C416.246 128.794 417.528 129.188 418.975 129.188Z" fill="#C3EA21"/>
<path d="M495.908 82.9297H492.456V70.6006C492.456 68.5622 492.226 66.195 491.766 63.499C491.305 60.8031 490.549 58.2386 489.497 55.8057C488.445 53.3727 486.998 51.3343 485.157 49.6904C483.382 48.0465 481.179 47.2246 478.549 47.2246C475.458 47.2246 473.058 48.0794 471.349 49.7891C469.705 51.4329 468.488 54.1947 467.699 58.0742C466.976 61.888 466.549 66.984 466.417 73.3623C466.285 79.6748 466.22 87.4997 466.22 96.8369C466.22 98.3493 466.187 100.486 466.121 103.248C466.121 105.944 466.187 108.903 466.318 112.125C466.516 115.347 466.812 118.635 467.206 121.988C467.666 125.342 468.324 128.399 469.179 131.161C470.099 133.923 471.283 136.191 472.729 137.967C474.242 139.676 476.116 140.531 478.352 140.531C480.324 140.531 482.034 140.104 483.48 139.249C484.993 138.328 486.275 137.145 487.327 135.698C488.379 134.252 489.234 132.641 489.892 130.865C490.615 129.024 491.141 127.15 491.47 125.243C491.864 123.336 492.094 121.495 492.16 119.72C492.292 117.879 492.325 116.268 492.259 114.887H495.711C495.711 118.043 495.415 121.364 494.823 124.849C494.297 128.268 493.311 131.424 491.864 134.317C490.418 137.211 488.478 139.611 486.045 141.518C483.612 143.424 480.489 144.378 476.675 144.378C473.19 144.378 470.231 143.49 467.798 141.715C465.431 139.874 463.458 137.507 461.88 134.613C460.302 131.72 459.085 128.465 458.23 124.849C457.441 121.232 456.85 117.616 456.455 113.999C456.061 110.382 455.83 106.93 455.765 103.643C455.699 100.355 455.666 97.626 455.666 95.4561C455.666 90.9189 455.699 86.4476 455.765 82.042C455.83 77.6364 456.061 73.4938 456.455 69.6143C456.85 65.6689 457.441 62.0195 458.23 58.666C459.085 55.3125 460.269 52.4521 461.781 50.085C463.359 47.652 465.332 45.7451 467.699 44.3643C470.066 42.9834 472.993 42.293 476.478 42.293C480.226 42.293 483.448 43.3451 486.144 45.4492C488.905 47.5534 491.009 50.2822 492.456 53.6357V33.416H495.908V82.9297Z" fill="#C3EA21"/>
<path d="M520.566 134.021C520.501 135.665 520.698 136.948 521.158 137.868C521.684 138.723 522.375 139.381 523.229 139.841C524.084 140.235 525.071 140.465 526.188 140.531C527.372 140.597 528.589 140.597 529.838 140.531V143.983L500.544 144.181V140.729C501.925 140.794 503.207 140.827 504.391 140.827C505.64 140.827 506.725 140.663 507.646 140.334C508.566 139.939 509.289 139.315 509.815 138.46C510.341 137.539 510.604 136.191 510.604 134.416L512.281 17.9307C512.281 17.1416 512.117 16.3197 511.788 15.4648C511.525 14.61 511.131 13.821 510.604 13.0977C510.078 12.3086 509.454 11.6839 508.73 11.2236C508.007 10.6976 507.218 10.4346 506.363 10.4346H502.714V6.98242H532.205V10.4346H527.964C526.451 10.4346 525.169 11.0592 524.117 12.3086C523.065 13.5579 522.539 14.9388 522.539 16.4512L521.553 67.543C523.986 62.8086 526.583 59.488 529.345 57.5811C532.106 55.6084 535.23 54.6221 538.715 54.6221C541.608 54.6221 544.074 55.3125 546.112 56.6934C548.216 58.0085 549.926 59.7181 551.241 61.8223C552.622 63.9264 553.641 66.2936 554.299 68.9238C554.956 71.4883 555.285 74.0199 555.285 76.5186C555.285 84.0804 555.219 91.6751 555.088 99.3027C554.956 106.93 554.891 114.525 554.891 122.087C554.891 122.942 555.022 123.895 555.285 124.947C555.614 125.934 556.074 126.887 556.666 127.808C557.258 128.662 557.948 129.386 558.737 129.978C559.592 130.569 560.513 130.898 561.499 130.964H564.162V134.416L535.065 134.613V131.26H538.518C539.438 131.194 540.293 130.931 541.082 130.471C541.871 129.945 542.562 129.32 543.153 128.597C543.745 127.873 544.205 127.084 544.534 126.229C544.929 125.309 545.126 124.421 545.126 123.566C545.126 117.451 545.159 111.467 545.225 105.615C545.225 103.117 545.225 100.552 545.225 97.9219C545.225 95.2259 545.225 92.5957 545.225 90.0312C545.29 87.401 545.323 84.9023 545.323 82.5352C545.323 80.168 545.323 77.998 545.323 76.0254C545.257 74.6445 545.159 73.0335 545.027 71.1924C544.896 69.2855 544.567 67.5101 544.041 65.8662C543.515 64.2223 542.693 62.8415 541.575 61.7236C540.457 60.54 538.879 59.9482 536.841 59.9482C534.605 59.9482 532.632 60.6058 530.923 61.9209C529.213 63.1702 527.701 64.7812 526.386 66.7539C525.136 68.7266 524.084 70.9294 523.229 73.3623C522.44 75.7295 521.816 78.0309 521.355 80.2666L520.566 134.021Z" fill="#C3EA21"/>
<path d="M587.538 28.3857C587.538 30.0954 586.913 31.6077 585.664 32.9229C584.415 34.238 582.935 34.8955 581.226 34.8955C579.516 34.8955 578.004 34.238 576.688 32.9229C575.373 31.6077 574.716 30.0954 574.716 28.3857C574.716 26.6761 575.373 25.2295 576.688 24.0459C578.004 22.7965 579.516 22.1719 581.226 22.1719C582.935 22.1719 584.415 22.7965 585.664 24.0459C586.913 25.2295 587.538 26.6761 587.538 28.3857ZM595.527 121.89V125.342H567.318V121.692H576.59L576.787 61.1318C576.787 59.9482 576.688 58.7646 576.491 57.5811C576.294 56.3317 575.932 55.2139 575.406 54.2275C574.88 53.1755 574.157 52.3206 573.236 51.6631C572.382 51.0055 571.264 50.6439 569.883 50.5781H565.642V47.2246L587.242 47.6191L586.453 121.692L595.527 121.89Z" fill="#C3EA21"/>
<path d="M618.016 130.964C617.95 132.476 618.18 133.66 618.706 134.515C619.298 135.369 620.054 135.994 620.975 136.389C621.895 136.783 622.914 137.046 624.032 137.178C625.216 137.243 626.367 137.276 627.484 137.276V140.729H597.796V137.079C599.045 137.145 600.262 137.178 601.445 137.178C602.695 137.178 603.78 137.013 604.7 136.685C605.687 136.29 606.476 135.665 607.067 134.811C607.659 133.956 607.955 132.674 607.955 130.964L608.547 60.7373C608.547 58.6989 608.35 57.0879 607.955 55.9043C607.626 54.7207 607.067 53.8001 606.278 53.1426C605.489 52.485 604.437 52.0576 603.122 51.8604C601.807 51.6631 600.229 51.5316 598.388 51.4658V48.0137C598.388 48.0137 598.684 48.0465 599.275 48.1123C599.867 48.1123 600.623 48.1452 601.544 48.2109C602.465 48.2767 603.517 48.3424 604.7 48.4082C605.95 48.4082 607.232 48.4082 608.547 48.4082L618.805 48.6055L618.607 59.2578C619.66 57.2852 620.81 55.6413 622.06 54.3262C623.309 52.9453 624.591 51.8604 625.906 51.0713C627.221 50.2165 628.569 49.6247 629.95 49.2959C631.331 48.9671 632.679 48.8027 633.994 48.8027C636.427 48.8027 638.531 49.263 640.307 50.1836C642.148 51.0384 643.66 52.222 644.844 53.7344C646.027 55.181 646.915 56.8906 647.507 58.8633C648.099 60.8359 648.362 62.9401 648.296 65.1758L647.507 120.509C647.441 122.021 647.671 123.205 648.197 124.06C648.789 124.849 649.545 125.44 650.466 125.835C651.386 126.229 652.406 126.46 653.523 126.525C654.707 126.591 655.858 126.591 656.976 126.525L657.173 130.175L627.287 129.978V126.525C628.536 126.525 629.753 126.525 630.937 126.525C632.186 126.46 633.304 126.262 634.29 125.934C635.276 125.605 636.065 125.013 636.657 124.158C637.249 123.303 637.578 122.021 637.644 120.312L638.038 63.499C638.038 62.5785 637.907 61.625 637.644 60.6387C637.446 59.5866 637.085 58.6331 636.559 57.7783C636.098 56.9235 635.441 56.2331 634.586 55.707C633.731 55.1152 632.712 54.8193 631.528 54.8193C629.03 54.8193 626.728 55.7399 624.624 57.5811C622.52 59.3564 620.514 62.2168 618.607 66.1621L618.016 130.964Z" fill="#C3EA21"/>
<path d="M680.549 79.8721C683.508 79.8721 685.908 79.9378 687.749 80.0693C689.656 80.1351 691.103 79.9049 692.089 79.3789C693.075 78.8529 693.7 77.8665 693.963 76.4199C694.292 74.9733 694.423 72.7048 694.357 69.6143H697.711V96.2451H694.357V88.5518C694.357 88.0257 694.259 87.4339 694.062 86.7764C693.93 86.1188 693.7 85.527 693.371 85.001C693.042 84.4092 692.648 83.916 692.188 83.5215C691.727 83.127 691.168 82.9297 690.511 82.9297L680.549 83.127L681.634 122.481C683.672 122.481 685.645 122.481 687.552 122.481C689.459 122.481 691.366 122.416 693.272 122.284C694.522 122.218 695.705 121.857 696.823 121.199C698.007 120.542 699.026 119.72 699.881 118.733C700.801 117.747 701.525 116.662 702.051 115.479C702.577 114.229 702.84 113.013 702.84 111.829L703.037 97.9219H706.489L706.193 125.539C698.632 125.671 691.037 125.868 683.409 126.131C675.782 126.328 668.187 126.525 660.625 126.723L660.428 123.172C662.137 123.172 663.65 123.172 664.965 123.172C666.346 123.106 667.496 122.843 668.417 122.383C669.338 121.923 670.028 121.166 670.488 120.114C671.014 119.062 671.277 117.517 671.277 115.479V114.887L669.896 51.2686C669.831 49.2301 669.535 47.6191 669.009 46.4355C668.483 45.1862 667.727 44.2656 666.74 43.6738C665.82 43.082 664.636 42.7204 663.189 42.5889C661.809 42.4574 660.198 42.4245 658.356 42.4902L658.159 39.1367L704.023 37.8545L704.221 65.9648H700.769L700.571 51.2686C700.571 48.7041 700.012 46.4684 698.895 44.5615C697.842 42.6546 695.837 41.7012 692.878 41.7012C690.642 41.7012 688.439 41.734 686.27 41.7998C684.165 41.8656 681.995 41.8984 679.76 41.8984L680.549 79.8721Z" fill="#C3EA21"/>
</svg>
