<?xml version="1.0" encoding="iso-8859-1"?>
<!-- Generator: Adobe Illustrator 22.1.0, SVG Export Plug-In . SVG Version: 6.00 Build 0)  -->
<svg xmlns="http://www.w3.org/2000/svg" xmlns:xlink="http://www.w3.org/1999/xlink" version="1.1" id="Layer_3" x="0px" y="0px" viewBox="0 0 64 64" style="enable-background:new 0 0 64 64;" xml:space="preserve" width="512" height="512">
<g>
	<circle style="fill:#93D3F6;" cx="12" cy="15" r="3"/>
	<circle style="fill:#93D3F6;" cx="6" cy="6" r="4"/>
	<circle style="fill:#93D3F6;" cx="52" cy="15" r="3"/>
	<circle style="fill:#93D3F6;" cx="58" cy="6" r="4"/>
	<polyline style="fill:#DBC5A7;" points="37,8 38,2 26,2 27,8  "/>
	<path style="fill:#DD5D59;" d="M35,18v-2c0-1.105,0.895-2,2-2h4V8H23v6h4c1.105,0,2,0.895,2,2v2c0,1.105-0.895,2-2,2H16   c-1.105,0-2,0.895-2,2v38c0,1.105,0.895,2,2,2h32c1.105,0,2-0.895,2-2V22c0-1.105-0.895-2-2-2H37C35.895,20,35,19.105,35,18z"/>
	<path style="fill:#EE7370;" d="M35,18v-2c0-1.105,0.895-2,2-2h2.539c-0.914-2.184-2.054-4.203-3.392-6H23v6h4c1.105,0,2,0.895,2,2   v2c0,1.105-0.895,2-2,2H16c-1.105,0-2,0.895-2,2v31.169C15.76,53.71,17.602,54,19.5,54C31.926,54,42,41.688,42,26.5   c0-2.24-0.224-4.415-0.638-6.5H37C35.895,20,35,19.105,35,18z"/>
	<path style="fill:#434E5C;" d="M45,39c0-7.18-5.82-13-13-13s-13,5.82-13,13c0,4.159,1.961,7.853,5,10.233V54h16v-4.767   C43.039,46.853,45,43.159,45,39z"/>
	<g>
		<rect x="27" y="49" style="fill:#596573;" width="2" height="5"/>
	</g>
	<g>
		<rect x="31" y="49" style="fill:#596573;" width="2" height="5"/>
	</g>
	<g>
		<rect x="35" y="49" style="fill:#596573;" width="2" height="5"/>
	</g>
	<g>
		<rect x="33" y="43" style="fill:#596573;" width="2" height="4"/>
	</g>
	<rect x="29" y="43" style="fill:#596573;" width="2" height="4"/>
	<path style="fill:#657B88;" d="M19,39c0,2.613,0.775,5.04,2.104,7.075C22.616,46.667,24.267,47,26,47c7.18,0,13-5.596,13-12.5   c0-2.96-1.076-5.675-2.864-7.817C34.836,26.247,33.448,26,32,26C24.82,26,19,31.82,19,39z"/>
	<path style="fill:#7B909B;" d="M33,45.022c0.718-0.443,1.388-0.949,2-1.515V43h-2V45.022z"/>
	<path style="fill:#7B909B;" d="M31,46.039V43h-2v3.652C29.688,46.495,30.359,46.296,31,46.039z"/>
	<circle style="fill:#D8DCE4;" cx="27" cy="38" r="4"/>
	<circle style="fill:#D8DCE4;" cx="37" cy="38" r="4"/>
	<path style="fill:#FFFFFF;" d="M23,38c0,0.161,0.029,0.315,0.047,0.471C23.627,38.798,24.287,39,25,39c2.209,0,4-1.791,4-4   c0-0.161-0.029-0.315-0.047-0.471C28.373,34.202,27.713,34,27,34C24.791,34,23,35.791,23,38z"/>
	<path style="fill:#FFFFFF;" d="M33,38c0,0.161,0.029,0.315,0.047,0.471C33.627,38.798,34.287,39,35,39c2.209,0,4-1.791,4-4   c0-0.161-0.029-0.315-0.047-0.471C38.373,34.202,37.713,34,37,34C34.791,34,33,35.791,33,38z"/>
</g>
</svg>
