<svg width="2157" height="2157" viewBox="0 0 2157 2157" fill="none" xmlns="http://www.w3.org/2000/svg">
<path d="M1078.5 2157C1674.14 2157 2157 1674.14 2157 1078.5C2157 482.861 1674.14 0 1078.5 0C482.861 0 0 482.861 0 1078.5C0 1674.14 482.861 2157 1078.5 2157Z" fill="#FDBF00"/>
<path d="M1138.1 2155.34C1706.01 2124.4 2157 1654.14 2157 1078.5C2157 1059.25 2156.47 1040.13 2155.48 1021.12L1408.24 273.885L1117.11 565.012L930.429 378.327L748.714 560.041L1309.73 1121.06L706.779 1724.02L1138.1 2155.34Z" fill="#FF9100"/>
<path d="M1314.24 899.334V559.868H1408.54V273.838H748.463V559.872H842.76L907.588 609.968L842.76 654.169V748.466L898.749 807.4L842.76 842.764V899.338C670.196 987.978 559.873 1165.26 559.873 1361.39C559.873 1647.11 792.778 1883.16 1078.5 1883.16C1364.22 1883.16 1597.13 1647.11 1597.13 1361.39C1597.13 1165.25 1486.81 987.973 1314.24 899.334Z" fill="#E0F4FF"/>
<path d="M1314.24 899.334V559.868H1408.54V273.838H1078.5V1883.16C1364.22 1883.16 1597.13 1647.11 1597.13 1361.39C1597.13 1165.25 1486.8 987.973 1314.24 899.334Z" fill="#BBDCFF"/>
<path d="M1053.98 1222.78L956.858 1054.93C835.211 1103.02 748.459 1222.78 748.459 1361.39C748.459 1377.42 748.775 1395.64 751.602 1411.68H945.542C939.884 1396.59 937.053 1378.36 937.053 1361.39C937.057 1291.61 987.035 1234.09 1053.98 1222.78Z" fill="#575F64"/>
<path d="M1202.97 1055.87L1106.79 1222.77C1171.85 1235.97 1219.94 1292.55 1219.94 1361.39C1219.94 1378.36 1217.11 1396.58 1211.45 1411.68H1404.77C1407.59 1395.65 1408.54 1377.42 1408.54 1361.39C1408.54 1223.71 1323.67 1104.91 1202.97 1055.87Z" fill="#32393F"/>
<path d="M1078.5 1502.84C1036.06 1502.84 998.35 1483.97 972.888 1454.75L876.703 1621.65C932.339 1665.96 1003.06 1691.43 1078.5 1691.43C1155.82 1691.43 1227.49 1665.02 1283.12 1619.76L1186.94 1451.91C1160.54 1483.03 1121.88 1502.84 1078.5 1502.84Z" fill="#575F64"/>
<path d="M1283.12 1619.76L1186.94 1451.91C1160.53 1483.03 1121.88 1502.84 1078.5 1502.84V1691.43C1155.82 1691.43 1227.49 1665.02 1283.12 1619.76Z" fill="#32393F"/>
<path d="M1031.35 559.873H842.76V654.17H1031.35V559.873Z" fill="#9ABADB"/>
<path d="M1031.35 748.461H842.76V842.758H1031.35V748.461Z" fill="#9ABADB"/>
<path d="M1078.5 1408.53C1104.54 1408.53 1125.65 1387.42 1125.65 1361.39C1125.65 1335.35 1104.54 1314.24 1078.5 1314.24C1052.46 1314.24 1031.36 1335.35 1031.36 1361.39C1031.36 1387.42 1052.46 1408.53 1078.5 1408.53Z" fill="#575F64"/>
<path d="M1125.65 1361.39C1125.65 1335.34 1104.54 1314.24 1078.5 1314.24V1408.54C1104.54 1408.54 1125.65 1387.43 1125.65 1361.39Z" fill="#32393F"/>
</svg>
