<svg width="2157" height="2157" viewBox="0 0 2157 2157" fill="none" xmlns="http://www.w3.org/2000/svg">
<path d="M1078.5 2157C1674.14 2157 2157 1674.14 2157 1078.5C2157 482.861 1674.14 0 1078.5 0C482.861 0 0 482.861 0 1078.5C0 1674.14 482.861 2157 1078.5 2157Z" fill="#FDBF00"/>
<path d="M2144.51 913.889L1677.35 446.73L1180.66 932.102L894.398 800.946L834.364 860.98L1048.73 1075.35L829.418 931.061L769.384 991.095L951.183 1172.89L914.059 1210.02L764.413 1060.37L704.38 1120.41L854.026 1270.05L805.051 1319.03L687.827 1201.8L639.219 1250.42L756.442 1367.64L667.079 1457L586.376 1376.3L428.789 1533.88L1051.56 2156.66C1060.52 2156.88 1069.49 2157 1078.5 2157C1674.14 2157 2157 1674.14 2157 1078.5C2157 1022.53 2152.73 967.562 2144.51 913.889Z" fill="#FF9100"/>
<path d="M1681.37 476.402L1677.36 446.697L1646.85 442.682C1570.57 431.442 1297.59 410.563 979.637 601.655L935.477 628.154L1187.59 879.462L1176.35 890.702L859.203 784.718L834.313 860.997L1112.92 954.131L1063.14 1003.91L794.164 914.791L769.275 991.069L999.707 1067.35L949.123 1117.93L729.93 1044.06L704.236 1120.34L885.694 1181.36L835.914 1231.14L664.896 1174.13L639.202 1250.41L772.481 1294.57L716.276 1350.77H317.514L398.338 1492.09C420.818 1537.05 462.568 1568.37 513.152 1576.39C523.591 1578 534.027 1578.8 545.267 1578H546.071C545.267 1589.24 546.071 1599.68 547.681 1610.92C555.706 1660.7 586.22 1702.45 631.985 1725.73L772.228 1805.86V1406.98L829.502 1351.58L873.662 1484.06L949.94 1459.17L892.931 1288.15L942.711 1237.57L1002.93 1419.82L1079.21 1394.13L1006.15 1174.14L1055.93 1124.36L1133 1354.79L1209.28 1329.09L1120.16 1060.93L1169.94 1010.34L1263.08 1289.75L1339.35 1264.06L1233.37 946.914L1243.81 936.475L1495.92 1187.78L1522.42 1143.62C1712.69 826.472 1691.81 552.68 1681.37 476.402Z" fill="#E0F4FF"/>
<path d="M1522.4 1143.61L1495.9 1187.78L1243.79 936.47L1233.35 946.91L1339.33 1264.05L1263.06 1289.75L1169.92 1010.34L1120.14 1060.92L1209.26 1329.09L1132.98 1354.79L1055.91 1124.35L1006.13 1174.13L1079.19 1394.13L1002.91 1419.82L942.691 1237.57L892.911 1288.15L949.92 1459.17L873.641 1484.06L829.482 1351.58L772.208 1406.97V1805.86L631.965 1725.73C586.2 1702.45 555.686 1660.69 547.661 1610.91C546.051 1599.68 545.251 1589.24 546.051 1578L1677.34 446.705L1681.36 476.41C1691.81 552.68 1712.69 826.472 1522.4 1143.61Z" fill="#BBDCFF"/>
<path d="M1524.54 673.759V751.369H1454.96V818.278H1377.34L1378.04 746.019H1305.08V673.759H1377.34V598.82H1451.72L1451.78 673.759H1450.3H1524.54Z" fill="#575F64"/>
<path d="M1524.54 673.76V751.37H1454.96V818.279H1377.34L1378.04 746.019L1450.3 673.76H1524.54Z" fill="#32393F"/>
</svg>
