<svg width="2157" height="2157" viewBox="0 0 2157 2157" fill="none" xmlns="http://www.w3.org/2000/svg">
<g clip-path="url(#clip0)">
<path d="M1078.5 2157C1674.14 2157 2157 1674.14 2157 1078.5C2157 482.861 1674.14 0 1078.5 0C482.861 0 0 482.861 0 1078.5C0 1674.14 482.861 2157 1078.5 2157Z" fill="#FDBF00"/>
<path d="M1643.76 668.708L1386.89 925.581L952.964 491.653L524.61 920.003L736.485 1131.88L658.197 1210.17L837.026 1388.99L667.41 1558.61L560.685 1451.88L481.125 1531.45L587.85 1638.17L532.686 1642.78L464.577 1625.22L399.016 1690.79L838.357 2130.13C915.583 2147.69 995.953 2157 1078.5 2157C1640.79 2157 2102.5 1726.67 2152.44 1177.39L1643.76 668.708Z" fill="#FF9100"/>
<path d="M1261.69 1415.18L1078.5 1494.83L895.305 1415.19C919.201 1325.98 925.571 1229.34 916.016 1136.94L869.817 1107.47L904.068 1058.88L888.139 980.828L1033.1 966.492L1031.51 965.695L1078.5 968.876L1268.86 980.824L1252.93 1058.88L1305.5 1100.3L1240.99 1136.94C1231.43 1229.33 1237.8 1325.97 1261.69 1415.18Z" fill="#9CDD05"/>
<path d="M1261.69 1415.18L1078.5 1494.83V968.876L1268.86 980.824L1252.93 1058.88L1305.5 1100.3L1240.99 1136.94C1231.43 1229.33 1237.8 1325.97 1261.69 1415.18Z" fill="#66BB00"/>
<path d="M1572.33 627.977C1560.38 604.082 1545.25 581.779 1526.13 563.461C1486.31 523.637 1432.94 502.13 1378.78 497.348C1312.67 396.192 1199.57 331.415 1078.5 331.415C957.43 331.415 844.331 396.192 778.218 497.352C724.057 502.13 670.692 523.637 630.868 563.465C601.398 592.934 579.892 629.57 568.74 669.394C515.375 696.479 481.129 750.64 481.129 811.971C481.129 899.582 552.815 971.273 640.431 971.273C665.123 971.273 689.814 965.695 711.321 954.544C754.331 971.273 802.122 976.051 847.52 966.492C912.036 1021.45 993.282 1050.92 1078.51 1050.92C1163.74 1050.92 1244.98 1021.45 1309.5 966.492C1370.03 978.435 1433.75 967.288 1484.72 934.629C1499.86 939.407 1515.79 941.004 1531.72 941.004C1619.33 941.004 1691.02 870.113 1691.02 781.702C1691.01 708.422 1641.62 646.295 1572.33 627.977Z" fill="#C3EA21"/>
<path d="M1691.01 781.701C1691.01 870.113 1619.32 941.004 1531.71 941.004C1515.78 941.004 1499.84 939.411 1484.71 934.629C1433.74 967.288 1370.01 978.435 1309.48 966.492C1244.97 1021.45 1163.72 1050.92 1078.5 1050.92V331.415C1199.57 331.415 1312.66 396.192 1378.78 497.352C1432.94 502.13 1486.3 523.637 1526.13 563.465C1545.24 581.783 1560.38 604.086 1572.33 627.981C1641.62 646.295 1691.01 708.422 1691.01 781.701Z" fill="#9CDD05"/>
<path d="M1118.32 1130.57H1038.67V1372.17H1118.32V1130.57Z" fill="#66BB00"/>
<path d="M1118.32 1130.57H1078.5V1372.17H1118.32V1130.57Z" fill="#539900"/>
<path d="M1675.88 1372.17H1596.23V1451.82H1675.88V1372.17Z" fill="#9CDD05"/>
<path d="M560.774 1451.83H481.125V1531.48H560.774V1451.83Z" fill="#DCF37D"/>
<path d="M1596.23 1639V1650.95H560.772V1639C560.772 1537.84 641.218 1455.81 741.581 1451.82C769.458 1403.24 822.026 1372.18 879.372 1372.18C916.804 1372.18 951.059 1385.72 978.936 1408.81C1006.02 1386.51 1040.27 1372.18 1078.5 1372.18C1116.73 1372.18 1150.98 1386.51 1178.06 1408.81C1205.94 1385.72 1240.19 1372.18 1277.63 1372.18C1334.97 1372.18 1387.54 1403.24 1415.42 1451.82C1515.78 1455.81 1596.23 1537.84 1596.23 1639Z" fill="#C3EA21"/>
<path d="M1596.23 1639V1650.95H1078.5V1372.17C1116.73 1372.17 1150.98 1386.51 1178.06 1408.81C1205.94 1385.71 1240.19 1372.17 1277.63 1372.17C1334.97 1372.17 1387.54 1403.24 1415.42 1451.82C1515.78 1455.81 1596.23 1537.84 1596.23 1639Z" fill="#9CDD05"/>
<path d="M1758.18 1611.12H398.821V1690.77H1758.18V1611.12Z" fill="#DCF37D"/>
<path d="M1758.18 1611.12H1078.5V1690.77H1758.18V1611.12Z" fill="#C3EA21"/>
<path d="M1516.57 1170.39C1516.57 1243.67 1368.43 1272.34 1239.39 1282.7C1173.28 1289.07 1112.75 1289.87 1078.5 1289.87C1044.25 1289.87 983.718 1289.07 917.605 1282.7C788.573 1272.34 640.427 1243.67 640.427 1170.39C640.427 1148.09 640.427 1082.78 904.069 1058.88L906.462 1069.24C911.24 1092.33 914.425 1114.64 916.813 1137.74C822.828 1145.7 767.867 1160.04 739.994 1170.39C771.856 1181.55 833.183 1195.88 920.803 1203.05C966.205 1207.83 1018.77 1210.22 1078.51 1210.22C1138.25 1210.22 1190.81 1207.83 1236.21 1203.05C1323.83 1195.88 1385.16 1181.55 1417.02 1170.39C1389.15 1160.04 1334.19 1145.7 1240.2 1137.74C1242.59 1114.64 1245.77 1092.33 1250.55 1069.24L1252.95 1058.88C1516.57 1082.78 1516.57 1148.09 1516.57 1170.39Z" fill="#C3EA21"/>
<path d="M1516.57 1170.39C1516.57 1243.67 1368.43 1272.34 1239.39 1282.7C1173.28 1289.07 1112.75 1289.87 1078.5 1289.87V1210.22C1138.24 1210.22 1190.8 1207.83 1236.21 1203.05C1323.83 1195.88 1385.15 1181.55 1417.01 1170.39C1389.14 1160.04 1334.18 1145.7 1240.2 1137.74C1242.58 1114.64 1245.76 1092.33 1250.55 1069.24L1252.94 1058.88C1516.57 1082.78 1516.57 1148.09 1516.57 1170.39Z" fill="#9CDD05"/>
</g>
<defs>
<clipPath id="clip0">
<rect width="2157" height="2157" fill="white"/>
</clipPath>
</defs>
</svg>
