<svg width="2157" height="2157" viewBox="0 0 2157 2157" fill="none" xmlns="http://www.w3.org/2000/svg">
<g clip-path="url(#clip0)">
<path d="M1078.5 2157C1674.14 2157 2157 1674.14 2157 1078.5C2157 482.861 1674.14 0 1078.5 0C482.861 0 0 482.861 0 1078.5C0 1674.14 482.861 2157 1078.5 2157Z" fill="#FDBF00"/>
<path d="M1491.41 513.075L1388.33 616.161L1143.37 371.198L1092.54 502.737L961.554 370.802L875.417 456.939L945.701 527.226L933.766 539.162L795.625 401.021L749.14 447.506L887.281 585.647L883.384 589.544L1044.8 752.001L1002.67 915.251L728.725 741.848L649.206 821.366L1172.41 1344.57L1147.81 1369.16L802.989 1024.34L778.416 1048.92L649.177 919.678L571.171 997.684L688.807 1115.36L650.639 1098.61L597.704 1151.54L981.565 1535.41L965.775 1551.19L805.269 1390.69L727.275 1468.68L887.782 1629.19L762.533 1668.3L479.452 1635.89L412.518 1702.83L840.227 2130.53C916.885 2147.82 996.618 2157 1078.5 2157C1641.82 2157 2104.19 1725.09 2152.71 1174.37L1491.41 513.075Z" fill="#FF9100"/>
<path d="M1343.89 1146.07L1226.02 1185.09L1260.37 1530.35L1412.57 1631.04L1390.72 1663.83H766.283L744.427 1631.04L898.977 1528.79L923.955 1309.98H816.24L784.234 1213.97L597.688 1151.53L622.661 1078.16L753.017 1121.09L729.602 1049.28L802.969 1024.3L872.44 1231.93H932.541L952.055 1063.33L649.207 821.362V552.074L789.703 692.57L984.056 789.357L999.669 666.816L883.368 589.539V514.609L749.116 447.485L783.455 377.235L883.368 427.191V370.734H961.42V547.394L1024.64 589.539L1078.5 500.563L1143.29 370.991L1172.95 651.991L1291.58 612.184L1400.08 503.689C1403.2 500.567 1414.13 490.423 1441.45 463.098L1496.08 517.735L1429.74 584.859V744.093L1199.48 916.59L1218.21 1105.48L1281.43 1083.63L1354.03 868.197L1427.4 893.175L1411.01 943.911L1451.6 923.617L1485.94 993.867L1375.88 1048.5L1343.89 1146.07Z" fill="#575F64"/>
<path d="M1343.89 1146.07L1226.02 1185.09L1260.37 1530.35L1412.57 1631.04L1390.72 1663.83H1078.5V500.563L1143.29 370.991L1172.94 651.991L1291.58 612.183L1400.08 503.689C1403.2 500.567 1414.13 490.422 1441.45 463.098L1496.08 517.735L1429.74 584.859V744.093L1199.48 916.59L1218.21 1105.48L1281.43 1083.63L1354.03 868.197L1427.39 893.175L1411.01 943.911L1451.6 923.617L1485.94 993.867L1375.88 1048.5L1343.89 1146.07Z" fill="#32393F"/>
<path d="M1744.56 1624.8H412.439V1702.85H1744.56V1624.8Z" fill="#7C8388"/>
<path d="M1744.56 1624.8H1078.5V1702.85H1744.56V1624.8Z" fill="#575F64"/>
<path d="M1507.79 1075.82H1429.74V1153.87H1507.79V1075.82Z" fill="#575F64"/>
<path d="M805.311 1390.64H727.259V1468.69H805.311V1390.64Z" fill="#7C8388"/>
<path d="M649.204 919.712H571.151V997.764H649.204V919.712Z" fill="#7C8388"/>
</g>
<defs>
<clipPath id="clip0">
<rect width="2157" height="2157" fill="white"/>
</clipPath>
</defs>
</svg>
