<svg width="2157" height="2157" viewBox="0 0 2157 2157" fill="none" xmlns="http://www.w3.org/2000/svg">
<g clip-path="url(#clip0)">
<path d="M1078.5 2157C1674.14 2157 2157 1674.14 2157 1078.5C2157 482.861 1674.14 0 1078.5 0C482.861 0 0 482.861 0 1078.5C0 1674.14 482.861 2157 1078.5 2157Z" fill="#FDBF00"/>
<path d="M1620.46 536.558L1442.22 358.319L1167.09 633.455L923.357 389.722L530.092 782.983L615.053 867.944L531.499 951.499L995.317 1415.32L650.888 1759.75L1047.67 2156.54C1057.92 2156.82 1068.19 2157 1078.5 2157C1674.14 2157 2157 1674.14 2157 1078.5C2157 1072.09 2156.87 1065.71 2156.76 1059.33L1627.23 529.797L1620.46 536.558Z" fill="#FF9100"/>
<path d="M1627.25 867.443H1479.51V951.865H1627.25V867.443Z" fill="#66BB00"/>
<path d="M677.492 867.443H529.754V951.865H677.492V867.443Z" fill="#9CDD05"/>
<path d="M1442.36 358.096H714.642L588.006 614.176H1568.99L1442.36 358.096Z" fill="#9CDD05"/>
<path d="M617.551 698.599L685.092 1505.67L687.624 1563.93L740.812 1542.82C764.454 1542.82 783.025 1561.39 783.025 1585.03V1714.48H1373.98V1585.03C1373.98 1561.39 1392.55 1542.82 1414.5 1541.13L1466.84 1562.24L1539.45 698.599H617.551V698.599Z" fill="#C3EA21"/>
<path d="M1078.5 698.599H1539.45L1466.84 1562.24L1414.5 1541.13C1392.55 1542.82 1373.98 1561.39 1373.98 1585.03V1714.48H1078.5V698.599Z" fill="#9CDD05"/>
<path d="M1568.99 614.176H1078.5V358.096H1442.36L1568.99 614.176Z" fill="#66BB00"/>
<path d="M740.812 1798.9C670.983 1798.9 614.177 1742.1 614.177 1672.27V1585.03C614.177 1523.28 657.254 1471.84 717.232 1461.16C726.711 1458.4 734.998 1458.4 740.812 1458.4C810.641 1458.4 867.447 1515.2 867.447 1585.03V1672.27C867.443 1742.1 810.641 1798.9 740.812 1798.9Z" fill="#575F64"/>
<path d="M1416.19 1798.9C1346.36 1798.9 1289.55 1742.1 1289.55 1672.27V1585.03C1289.55 1515.2 1346.36 1458.4 1416.19 1458.4C1422 1458.4 1430.29 1458.4 1439.77 1461.16C1499.75 1471.84 1542.82 1523.28 1542.82 1585.03V1672.27C1542.82 1742.1 1486.02 1798.9 1416.19 1798.9Z" fill="#32393F"/>
<path d="M529.754 529.754V783.02H1627.25V529.754H529.754V529.754Z" fill="#575F64"/>
<path d="M1199.52 1123.53C1208.04 1147.5 1209.29 1169.23 1202.58 1194.33C1193.84 1226.98 1172.86 1254.31 1143.59 1271.21C1130.66 1278.67 1116.88 1282.71 1102.94 1285.24L1191.45 1438.53L1228.01 1417.42C1318.91 1364.91 1373.25 1266.88 1373.46 1161.64L1373.54 1123.52H1199.52V1123.53Z" fill="#32393F"/>
<path d="M1264.23 926.541L1175.59 1081.87C1158.7 1061.61 1138.44 1045.57 1113.11 1038.82C1101.29 1035.44 1090.32 1034.6 1078.5 1034.6C1057.39 1034.6 1035.45 1040.51 1016.87 1051.48C1004.21 1059.08 994.079 1069.21 984.794 1080.18L896.15 926.541L932.453 905.434C977.194 879.264 1028.69 865.753 1078.5 865.753C1130 865.753 1181.49 879.264 1227.93 905.434L1264.23 926.541Z" fill="#575F64"/>
<path d="M970.584 1224.92C952.27 1193.12 947.99 1163.96 962.55 1123.52H786.4C786.261 1195.52 783.99 1239.31 824.367 1309.3C864.899 1379.43 907.116 1402.77 969.139 1438.41L1057.59 1285.19C1022.35 1278.71 989.891 1258.27 970.584 1224.92Z" fill="#575F64"/>
<path d="M1116.49 1140.13C1108.89 1126.62 1094.54 1119.02 1080.19 1119.02C1079.34 1119.02 1079.34 1119.02 1078.5 1119.02C1072.59 1119.02 1064.99 1120.71 1059.08 1124.93C1038.82 1136.75 1032.07 1162.92 1043.89 1182.33C1050.64 1195 1064.15 1202.59 1078.5 1203.44C1086.1 1204.29 1093.69 1202.59 1101.29 1198.38C1121.56 1186.56 1128.31 1160.39 1116.49 1140.13Z" fill="#575F64"/>
<path d="M1101.3 1198.38C1093.7 1202.6 1086.1 1204.29 1078.5 1203.44V1119.02C1079.35 1119.02 1079.35 1119.02 1080.19 1119.02C1094.54 1119.02 1108.89 1126.62 1116.49 1140.13C1128.31 1160.39 1121.56 1186.56 1101.3 1198.38Z" fill="#32393F"/>
<path d="M1113.11 1038.82C1101.29 1035.44 1090.32 1034.6 1078.5 1034.6V865.753C1130 865.753 1181.49 879.264 1227.93 905.434L1264.23 926.541L1175.59 1081.87C1158.7 1061.61 1138.44 1045.57 1113.11 1038.82Z" fill="#32393F"/>
<path d="M1627.25 529.754H1078.5V783.02H1627.25V529.754Z" fill="#32393F"/>
</g>
<defs>
<clipPath id="clip0">
<rect width="2157" height="2157" fill="white"/>
</clipPath>
</defs>
</svg>
