<svg width="2157" height="2157" viewBox="0 0 2157 2157" fill="none" xmlns="http://www.w3.org/2000/svg">
<g clip-path="url(#clip0)">
<path d="M1078.5 2157C1674.14 2157 2157 1674.14 2157 1078.5C2157 482.861 1674.14 0 1078.5 0C482.861 0 0 482.861 0 1078.5C0 1674.14 482.861 2157 1078.5 2157Z" fill="#FDBF00"/>
<path d="M1864.42 888.655L1802.89 950.18L1295.33 442.615L1141.29 596.651L1054.4 509.76L817.589 746.575L1484.92 1415.38L1459.07 1454.85L978.572 972.824L879.948 1347.83L860.506 1367.27L1053.22 1557.37L1003.83 1606.76L809.53 1415.09L572.714 1651.91L572.891 1652.09L471.959 1753.02L852.05 2133.11C925.072 2148.71 1000.82 2157 1078.5 2157C1641.02 2157 2102.87 1726.33 2152.5 1176.74L1864.42 888.655Z" fill="#FF9100"/>
<path d="M1189.44 1415.26L1147.22 1412.72V1454.94C1142.15 1467.61 1083.05 1499.69 978.357 1499.69C873.662 1499.69 814.56 1467.61 809.496 1457.47V1415.26H471.773V1752.98H1484.94V1415.26H1189.44V1415.26Z" fill="#E0F4FF"/>
<path d="M1009.6 1007.46L978.361 972.004L947.123 1007.46C924.327 1032.79 809.5 1164.5 809.5 1246.4C809.5 1339.28 885.488 1415.26 978.361 1415.26C1071.23 1415.26 1147.22 1339.28 1147.22 1246.4C1147.22 1164.5 1032.4 1032.79 1009.6 1007.46Z" fill="#9CDD05"/>
<path d="M1888.43 1093.84C1840.67 1173.85 1737.38 1199.51 1657.38 1151.75L1206.04 880.708L1172.61 803.098L1302.16 741.603L1382.76 703.99L1572.61 707.571L1831.11 862.201C1911.71 910.557 1936.18 1013.84 1888.43 1093.84Z" fill="#9CDD05"/>
<path d="M978.357 1415.26V972.004L1009.6 1007.46C1032.39 1032.79 1147.22 1164.5 1147.22 1246.4C1147.22 1339.28 1071.23 1415.26 978.357 1415.26Z" fill="#66BB00"/>
<path d="M1484.94 1415.26V1752.98H978.357V1499.69C1083.05 1499.69 1142.15 1467.61 1147.22 1454.94V1412.72L1189.44 1415.26H1484.94V1415.26Z" fill="#BBDCFF"/>
<path d="M1888.43 1093.84C1840.67 1173.85 1737.38 1199.51 1657.38 1151.75L1206.04 880.709L1172.61 803.099L1302.16 741.604L1888.43 1093.84Z" fill="#66BB00"/>
<path d="M1179.17 471.756L1092.61 615.639L1006.04 760.71L1205.44 881.308L1389.32 794.143L1572.6 707.577L1179.17 471.756Z" fill="#BBDCFF"/>
<path d="M1389.32 794.141L1205.44 881.306L1006.04 760.708L1092.61 615.633L1389.32 794.141Z" fill="#9ABADB"/>
<path d="M1077.68 311.754L947.532 529.067L817.379 746.381L1034.1 877.128L1164.84 659.216L1295.59 442.505L1077.68 311.754Z" fill="#E0F4FF"/>
<path d="M1164.84 659.217L1034.1 877.129L817.379 746.382L947.532 529.068L1164.84 659.217Z" fill="#BBDCFF"/>
</g>
<defs>
<clipPath id="clip0">
<rect width="2157" height="2157" fill="white"/>
</clipPath>
</defs>
</svg>
