<svg width="2157" height="2157" viewBox="0 0 2157 2157" fill="none" xmlns="http://www.w3.org/2000/svg">
<path d="M1078.5 2157C1674.14 2157 2157 1674.14 2157 1078.5C2157 482.861 1674.14 0 1078.5 0C482.861 0 0 482.861 0 1078.5C0 1674.14 482.861 2157 1078.5 2157Z" fill="#FDBF00"/>
<path d="M2155.37 1137.57L1840.98 823.182L1831.54 832.627L1459.06 460.149L1361.87 557.34L1112.41 307.891L981.604 873.471L456.61 837.876L383.39 911.097L766.447 1294.15L553.982 1506.62L468.461 1421.1L395.241 1494.32L480.762 1579.84L383.386 1677.21L835.72 2129.55C913.755 2147.5 995.017 2157 1078.5 2157C1654.32 2157 2124.7 1705.73 2155.37 1137.57Z" fill="#FF9100"/>
<path d="M421.627 1506.41V1591.53H562.047L726.084 1506.41H421.627Z" fill="#9ABADB"/>
<path d="M468.781 1421H383.373V1677.23H468.781V1421Z" fill="#BBDCFF"/>
<path d="M1767.45 871.176L1458.47 459.185L1257.38 660.278L1405.42 871.176H1767.45Z" fill="#66BB00"/>
<path d="M818.982 871.176L967.031 660.278L765.933 459.185L456.951 871.176H818.982Z" fill="#9CDD05"/>
<path d="M1509.36 870.96H715.049L1112.2 307.541L1509.36 870.96Z" fill="#C3EA21"/>
<path d="M1509.36 870.96H1112.2V307.541L1509.36 870.96Z" fill="#9CDD05"/>
<path d="M474.193 889.75L562.163 1591.53H1662.24L1750.21 889.75H474.193V889.75Z" fill="#BBDCFF"/>
<path d="M1662.24 1591.53H1112.2V889.75H1750.21L1662.24 1591.53Z" fill="#9ABADB"/>
<path d="M813.269 1765.2C719.061 1765.2 642.449 1688.59 642.449 1594.38C642.449 1500.17 719.061 1423.56 813.269 1423.56C907.478 1423.56 984.089 1500.17 984.089 1594.38C984.089 1688.59 907.478 1765.2 813.269 1765.2Z" fill="#575F64"/>
<path d="M813.271 1679.79C766.188 1679.79 727.863 1641.47 727.863 1594.38C727.863 1547.3 766.188 1508.98 813.271 1508.98C860.354 1508.98 898.679 1547.3 898.679 1594.38C898.679 1641.47 860.354 1679.79 813.271 1679.79Z" fill="#BBDCFF"/>
<path d="M1411.14 1765.2C1316.93 1765.2 1240.32 1688.59 1240.32 1594.38C1240.32 1500.17 1316.93 1423.56 1411.14 1423.56C1505.35 1423.56 1581.96 1500.17 1581.96 1594.38C1581.96 1688.59 1505.35 1765.2 1411.14 1765.2Z" fill="#32393F"/>
<path d="M1411.14 1679.79C1364.06 1679.79 1325.73 1641.47 1325.73 1594.38C1325.73 1547.3 1364.06 1508.98 1411.14 1508.98C1458.22 1508.98 1496.55 1547.3 1496.55 1594.38C1496.55 1641.47 1458.22 1679.79 1411.14 1679.79Z" fill="#BBDCFF"/>
<path d="M1841.03 823.132H383.373V911.101H1841.03V823.132Z" fill="#575F64"/>
<path d="M1841.03 823.132H1112.2V911.101H1841.03V823.132Z" fill="#32393F"/>
</svg>
