<svg width="2157" height="2157" viewBox="0 0 2157 2157" fill="none" xmlns="http://www.w3.org/2000/svg">
<path d="M1078.5 2157C1674.14 2157 2157 1674.14 2157 1078.5C2157 482.861 1674.14 0 1078.5 0C482.861 0 0 482.861 0 1078.5C0 1674.14 482.861 2157 1078.5 2157Z" fill="#FDBF00"/>
<path d="M2115.58 781.542L1737.1 403.068L1687.79 452.384L1660.23 480.274L1580.17 403.094L1303.19 473.251L1232.86 403.073L1044.8 442.354L839.287 459.209L731.349 634.554L1118.51 1021.71L950.036 1190.18L485.691 725.826L420.037 791.48L884.386 1255.83L419.928 1720.29L827.108 2127.47C907.772 2146.73 991.933 2157 1078.5 2157C1674.14 2157 2157 1674.14 2157 1078.5C2157 975.499 2142.54 875.881 2115.58 781.542Z" fill="#FF9100"/>
<path d="M1347.86 761.412L1340.92 803.09L1333.97 843.997C1320.86 923.49 1313.91 1002.99 1313.13 1083.26C1313.13 1162.76 1319.31 1243.03 1330.89 1321.75L1331.66 1327.16L1332.42 1332.56L1257.56 1524.74L1181.92 1720.27H419.887L443.041 1638.46L467.741 1554.07C502.472 1442.16 524.08 1327.16 531.802 1210.61C539.52 1094.07 534.115 976.75 514.82 861.751L506.331 811.583L497.842 761.412H1347.86V761.412Z" fill="#BBDCFF"/>
<path d="M1347.86 761.412L1340.92 803.09L1333.97 843.997C1320.85 923.49 1313.91 1002.99 1313.13 1083.26C1313.13 1162.76 1319.31 1243.03 1330.89 1321.75L1331.66 1327.16L1332.42 1332.56L1257.56 1524.74L1181.92 1720.27H924.135V761.412H1347.86V761.412Z" fill="#9ABADB"/>
<path d="M1425.82 714.334H419.887V791.514H1425.82V714.334Z" fill="#FF641A"/>
<path d="M1232.86 403.035V480.216H924.14C860.079 480.216 808.37 531.925 808.37 595.986V634.576H731.189V595.986C731.189 489.476 817.634 403.031 924.144 403.031H1232.86V403.035Z" fill="#7C8388"/>
<path d="M1580.18 403.035V480.215H1387.23C1365.61 480.215 1348.64 497.193 1348.64 518.805C1348.64 582.862 1296.93 634.576 1232.87 634.576H885.551V557.395H1232.87C1254.48 557.395 1271.46 540.413 1271.46 518.805C1271.46 454.744 1323.16 403.035 1387.23 403.035H1580.18V403.035Z" fill="#7C8388"/>
<path d="M1737.12 403.035H1659.94V480.215H1737.12V403.035Z" fill="#575F64"/>
<path d="M1737.12 1563.33V1720.26H1117.09V1563.33L1286.12 1486.15H1553.94L1737.12 1563.33Z" fill="#E0F4FF"/>
<path d="M1034.78 1179.99C1042.57 1201.91 1043.71 1221.78 1037.57 1244.73C1029.59 1274.58 1010.4 1299.56 983.644 1315.01C971.823 1321.83 959.222 1325.52 946.486 1327.84L1027.4 1467.98L1060.83 1448.69C1143.93 1400.67 1193.61 1311.06 1193.8 1214.84L1193.88 1179.99H1034.78Z" fill="#32393F"/>
<path d="M1093.94 999.905L1012.9 1141.92C997.461 1123.39 978.937 1108.73 955.779 1102.55C944.977 1099.47 934.942 1098.69 924.136 1098.69C904.841 1098.69 884.771 1104.1 867.797 1114.13C856.22 1121.07 846.956 1130.34 838.467 1140.37L757.428 999.9L790.617 980.605C831.52 956.68 878.599 944.328 924.14 944.328C971.219 944.328 1018.3 956.68 1060.75 980.605L1093.94 999.905Z" fill="#575F64"/>
<path d="M825.474 1272.69C808.732 1243.62 804.819 1216.97 818.131 1180H656.765C656.634 1245.82 654.886 1285.86 691.804 1349.84C728.86 1413.96 767.454 1435.3 824.156 1467.87L905.022 1327.8C872.798 1321.86 843.126 1303.19 825.474 1272.69Z" fill="#575F64"/>
<path d="M958.871 1195.17C951.924 1182.82 938.805 1175.88 925.682 1175.88C924.911 1175.88 924.911 1175.88 924.136 1175.88C918.731 1175.88 911.788 1177.42 906.387 1181.28C887.863 1192.09 881.687 1216.01 892.493 1233.77C898.665 1245.35 911.017 1252.29 924.136 1253.06C931.083 1253.83 938.03 1252.29 944.977 1248.43C963.501 1237.62 969.677 1213.69 958.871 1195.17Z" fill="#575F64"/>
<path d="M944.976 1248.43C938.029 1252.29 931.082 1253.83 924.135 1253.06V1175.88C924.906 1175.88 924.906 1175.88 925.681 1175.88C938.8 1175.88 951.919 1182.82 958.87 1195.17C969.676 1213.69 963.5 1237.62 944.976 1248.43Z" fill="#32393F"/>
<path d="M955.778 1102.55C944.976 1099.47 934.941 1098.69 924.135 1098.69V944.328C971.214 944.328 1018.29 956.68 1060.75 980.605L1093.94 999.9L1012.9 1141.91C997.46 1123.39 978.936 1108.73 955.778 1102.55Z" fill="#32393F"/>
<path d="M1425.81 714.334H924.135V791.514H1425.81V714.334Z" fill="#F03800"/>
<path d="M1232.86 403.035H924.135V480.215H1232.86V403.035Z" fill="#575F64"/>
<path d="M1580.18 403.035V480.215H1387.23C1365.61 480.215 1348.64 497.193 1348.64 518.805C1348.64 582.862 1296.93 634.576 1232.87 634.576H924.141V557.395H1232.87C1254.48 557.395 1271.46 540.413 1271.46 518.805C1271.46 454.744 1323.16 403.035 1387.23 403.035H1580.18V403.035Z" fill="#575F64"/>
<path d="M1737.11 1563.33V1720.26H1425.81V1486.15H1553.94L1737.11 1563.33Z" fill="#BBDCFF"/>
<path d="M1733.26 1517.79L1727.08 1486.15C1692.35 1351.85 1567.06 1254.6 1425.82 1254.6C1343.24 1254.6 1265.28 1287.02 1208.17 1344.9C1168.8 1383.49 1141.02 1432.12 1127.9 1486.14C1127.13 1489.23 1126.36 1491.55 1125.58 1494.63L1120.95 1517.79C1117.87 1532.45 1117.1 1547.89 1117.1 1563.32H1737.12C1737.12 1547.89 1736.34 1532.45 1733.26 1517.79Z" fill="#FF9100"/>
<path d="M1737.11 1563.33H1425.81V1254.6C1567.06 1254.6 1692.35 1351.85 1727.08 1486.15L1733.25 1517.79C1736.34 1532.45 1737.11 1547.89 1737.11 1563.33Z" fill="#FF641A"/>
</svg>
