<svg width="2157" height="2157" viewBox="0 0 2157 2157" fill="none" xmlns="http://www.w3.org/2000/svg">
<path d="M1078.5 2157C1674.14 2157 2157 1674.14 2157 1078.5C2157 482.861 1674.14 0 1078.5 0C482.861 0 0 482.861 0 1078.5C0 1674.14 482.861 2157 1078.5 2157Z" fill="#FDBF00"/>
<path d="M1714.73 789.217L1707.14 796.809L1402.11 491.787L1232.64 661.259L1103.76 532.378L452.305 1183.83L798.158 1529.68L650.93 1676.91L1129.78 2155.76C1653.51 2131.24 2079.53 1733.19 2147.49 1221.97L1714.73 789.217Z" fill="#FF9100"/>
<path d="M1525.94 699.445C1470.22 501.894 1287.02 358.096 1078.5 358.096C902.898 358.096 742.501 460.528 663.989 615.861C494.298 633.593 358.096 778.803 358.096 951.865C358.096 1138.44 512.022 1289.55 698.598 1289.55H1500.61C1663.54 1289.55 1798.9 1157.01 1798.9 994.074C1798.9 839.583 1677.05 712.105 1525.94 699.445Z" fill="#E0F4FF"/>
<path d="M1798.9 994.078C1798.9 1157.01 1663.55 1289.56 1500.61 1289.56H1078.5V358.096C1287.02 358.096 1470.22 501.894 1525.94 699.445C1677.05 712.105 1798.9 839.583 1798.9 994.078Z" fill="#BBDCFF"/>
<path d="M1199.51 785.834C1208.04 809.806 1209.28 831.54 1202.58 856.64C1193.84 889.286 1172.85 916.619 1143.59 933.517C1130.66 940.974 1116.88 945.014 1102.94 947.542L1191.45 1100.84L1228.01 1079.73C1318.9 1027.21 1373.25 929.186 1373.46 823.948L1373.54 785.83H1199.51V785.834Z" fill="#32393F"/>
<path d="M1113.11 1479.79L1078.5 1429.13L1043.89 1479.79C1016.03 1519.47 951.869 1618.24 951.869 1672.27C951.865 1742.34 1008.43 1798.9 1078.5 1798.9C1148.57 1798.9 1205.14 1742.34 1205.14 1672.27C1205.14 1618.24 1140.97 1519.47 1113.11 1479.79Z" fill="#C3EA21"/>
<path d="M1416.19 1714.48C1346.36 1714.48 1289.55 1657.68 1289.55 1587.85C1289.55 1533.89 1353.82 1435.04 1381.44 1395.01L1416.19 1344.72L1450.94 1395.01C1478.56 1435.04 1542.83 1533.89 1542.83 1587.85C1542.83 1657.68 1486.02 1714.48 1416.19 1714.48Z" fill="#9CDD05"/>
<path d="M740.811 1714.48C670.982 1714.48 614.176 1657.68 614.176 1587.85C614.176 1533.89 678.439 1435.04 706.059 1395.01L740.811 1344.72L775.563 1395.01C803.183 1435.04 867.446 1533.89 867.446 1587.85C867.442 1657.68 810.64 1714.48 740.811 1714.48Z" fill="#C3EA21"/>
<path d="M1264.23 588.852L1175.59 744.186C1158.7 723.926 1138.44 707.883 1113.11 701.13C1101.29 697.756 1090.32 696.909 1078.5 696.909C1057.39 696.909 1035.44 702.819 1016.87 713.794C1004.21 721.39 994.077 731.526 984.792 742.496L896.148 588.852L932.451 567.746C977.192 541.575 1028.69 528.064 1078.5 528.064C1130 528.064 1181.49 541.575 1227.93 567.746L1264.23 588.852Z" fill="#575F64"/>
<path d="M970.583 887.23C952.27 855.427 947.989 826.274 962.549 785.834H786.046C785.907 857.832 783.99 901.621 824.371 971.61C864.903 1041.74 907.12 1065.09 969.142 1100.72L1057.6 947.504C1022.35 941.016 989.891 920.583 970.583 887.23Z" fill="#575F64"/>
<path d="M1116.49 802.437C1108.89 788.93 1094.54 781.33 1080.19 781.33C1079.34 781.33 1079.34 781.33 1078.5 781.33C1072.59 781.33 1064.99 783.019 1059.08 787.241C1038.82 799.062 1032.07 825.233 1043.89 844.646C1050.64 857.31 1064.15 864.905 1078.5 865.752C1086.1 866.599 1093.69 864.905 1101.29 860.688C1121.56 848.867 1128.31 822.696 1116.49 802.437Z" fill="#575F64"/>
<path d="M1101.3 860.688C1093.7 864.91 1086.1 866.599 1078.5 865.752V781.33C1079.35 781.33 1079.35 781.33 1080.19 781.33C1094.54 781.33 1108.89 788.93 1116.49 802.437C1128.31 822.696 1121.56 848.867 1101.3 860.688Z" fill="#32393F"/>
<path d="M1113.11 1479.79C1140.97 1519.47 1205.13 1618.24 1205.13 1672.27C1205.14 1742.34 1148.57 1798.9 1078.5 1798.9V1429.13L1113.11 1479.79Z" fill="#9CDD05"/>
<path d="M1113.11 701.13C1101.29 697.756 1090.32 696.909 1078.5 696.909V528.064C1130 528.064 1181.49 541.575 1227.93 567.746L1264.23 588.852L1175.59 744.186C1158.7 723.926 1138.44 707.883 1113.11 701.13Z" fill="#32393F"/>
</svg>
